<svg xmlns="http://www.w3.org/2000/svg" width="120" height="100" fill="none" viewBox="0 0 120 100"><path fill="#2E001E" d="M5.00018 4.27367H115V95.7267H5.00018V4.27367Z"/><path fill="#FF2BC2" d="M0 0V100H120V0H0ZM5.0002 4.27367H115V95.7263H5.0002V4.27367Z"/><path fill="#FF2BC2" d="M87.1503 42.0087C86.2311 41.6887 85.2417 41.5429 84.2502 41.5813C77.9502 41.5813 73.7502 45.7267 73.7502 52.607C73.7502 60.4703 78.0504 63.6327 83.6504 63.6327C84.8246 63.661 85.9946 63.5016 87.1003 63.1627V42.0087H87.1503ZM64.7502 52.949C64.7502 42.9917 72.2503 35.214 84.5501 35.214C85.4181 35.1989 86.2863 35.2274 87.1503 35.2993V24.188C87.1506 24.0747 87.2034 23.9662 87.2971 23.8861C87.3908 23.806 87.5177 23.7609 87.6503 23.7607H95.7003C96.1004 23.7607 96.2002 23.889 96.2002 24.1027V63.1623C96.1708 64.5616 96.2543 65.9609 96.4502 67.3503C96.4502 67.6503 96.4502 67.6923 96.1503 67.8203C92.1523 69.4498 87.7794 70.2966 83.3501 70.299C72.5003 70.2993 64.7502 64.5727 64.7502 52.9487V52.949ZM47.7002 46.026L61.7012 69.231C61.9512 69.573 61.801 69.9147 61.4013 69.9147H52.7004C52.4774 69.9388 52.2514 69.8968 52.0603 69.7957C51.8692 69.6945 51.7245 69.5404 51.6505 69.359C48.4504 63.7179 45.1838 57.8632 41.8506 51.795H41.7499C38.7501 57.5217 35.4499 63.7617 32.2499 69.402C32.1699 69.5469 32.0421 69.6686 31.8821 69.7521C31.7222 69.8356 31.5371 69.8773 31.3498 69.872H23.0502C22.5502 69.872 22.5003 69.53 22.7503 69.2737L36.4502 46.7513L23.2003 24.359C23.1377 24.3039 23.0961 24.2338 23.0812 24.1581C23.0663 24.0823 23.0787 24.0045 23.1168 23.9349C23.1549 23.8653 23.2169 23.8073 23.2945 23.7685C23.3721 23.7298 23.4617 23.7122 23.5513 23.718H32.1501C32.6501 23.718 32.9 23.8033 33.0502 24.188C36.2002 29.8717 39.4002 35.47 42.4001 41.1967H42.4999C45.3999 35.5557 48.5999 29.872 51.6501 24.2737C51.9001 23.9317 52.0502 23.718 52.5502 23.718H60.6002C61.0004 23.718 61.1501 23.9743 60.9001 24.359L47.7002 46.026Z"/></svg>