<svg width="120" height="100" viewBox="0 0 120 100" fill="none" xmlns="http://www.w3.org/2000/svg">
<path d="M19.3836 0H100.616C111.315 0 120 7.20548 120 16.0822V83.9178C120 92.7945 111.315 100 100.616 100H19.3836C8.68464 100 0 92.7945 0 83.9178V16.0822C0 7.20548 8.65162 0 19.3836 0Z" fill="url(#paint0_linear)"/>
<path d="M60.8916 43.0411C63.9626 43.0411 66.2741 42.4932 67.8591 41.3699C69.4441 40.274 70.2366 38.6301 70.2366 36.4658C70.2366 34.3288 69.4441 32.7123 67.8591 31.6164C66.2741 30.4932 63.9626 29.9178 60.8916 29.9178H50.1266V43.0411H60.8916ZM61.552 70.137C65.4485 70.137 68.3874 69.4521 70.3357 68.1096C72.317 66.7671 73.3076 64.7123 73.3076 61.9726C73.3076 59.2877 72.317 57.2877 70.3687 55.9452C68.4205 54.6027 65.4816 53.9178 61.519 53.9178H50.0936V70.137H61.552V70.137ZM79.6478 47.863C83.8085 48.8493 87.0446 50.6849 89.3561 53.3699C91.6346 56.0548 92.7903 59.3425 92.7903 63.2329C92.7903 69.2055 90.3467 73.6712 85.4265 76.6027C80.5063 79.5342 73.0435 81.0137 63.005 81.0137H30.71V19.0685H59.9009C70.3687 19.0685 77.9637 20.3562 82.6527 22.9589C87.3748 25.5616 89.7193 29.726 89.7193 35.4521C89.7193 38.4658 88.8608 41.0411 87.1436 43.1781C85.4265 45.2877 82.9169 46.8493 79.6478 47.863Z" fill="white"/>
<defs>
<linearGradient id="paint0_linear" x1="6.93439" y1="94.7965" x2="92.844" y2="-10.5576" gradientUnits="userSpaceOnUse">
<stop stop-color="#070135"/>
<stop offset="1" stop-color="#612D50"/>
</linearGradient>
</defs>
</svg>
