<svg width="120" height="100" viewBox="0 0 120 100" fill="none" xmlns="http://www.w3.org/2000/svg">
<path d="M120 80C120 90.9863 109.184 100 96 100H24C10.7836 100 0 90.9863 0 80V20C0 8.9863 10.7836 0 24 0H96C109.184 0 120 8.9863 120 20V80Z" fill="#115A91"/>
<path d="M96 11.0137C101.951 11.0137 106.816 15.0411 106.816 20V70C106.816 74.9589 101.984 79.0137 96 79.0137H24C18.0493 79.0137 13.2164 74.9863 13.2164 70V20C13.2164 15.0411 18.0493 11.0137 24 11.0137H96Z" fill="white"/>
<path d="M96 11.0137C101.951 11.0137 106.816 15.0411 106.816 20V70C106.816 74.9589 101.984 79.0137 96 79.0137H24C18.0493 79.0137 13.2164 74.9863 13.2164 70V20C13.2164 15.0411 18.0493 11.0137 24 11.0137H96ZM96 0H24C10.7836 0 0 8.9863 0 20V70C0 80.9863 10.7836 90 24 90H96C109.184 90 120 80.9863 120 70V20C120 8.9863 109.184 0 96 0Z" fill="url(#paint0_linear)"/>
<path d="M93.6 20.9863V69.0137H63.6165V56.9863H80.3836V32H63.6165V20.9863H93.6Z" fill="#4D4D4D"/>
<path d="M56.4164 20.9863V32H39.5836V56.9863H56.4164V69.0137H26.4V20.9863H56.4164Z" fill="#4D4D4D"/>
<defs>
<linearGradient id="paint0_linear" x1="60.0031" y1="0.00260822" x2="60.0031" y2="89.9975" gradientUnits="userSpaceOnUse">
<stop stop-color="#29ABE2"/>
<stop offset="0.4757" stop-color="#28A9E1"/>
<stop offset="0.6639" stop-color="#23A2DC"/>
<stop offset="0.8012" stop-color="#1A96D4"/>
<stop offset="0.913" stop-color="#0E85C9"/>
<stop offset="1" stop-color="#0071BC"/>
</linearGradient>
</defs>
</svg>
