<svg xmlns="http://www.w3.org/2000/svg" width="120" height="100" fill="none" viewBox="0 0 120 100"><path fill="#1F72B5" d="M10.9176 90.0104L0 0H120L109.082 89.9758L59.9059 100L10.9176 90.0104Z"/><path fill="#51A3DC" d="M60 92.3609L99.7176 84.2724L109.082 7.36261H60V92.3609Z"/><path fill="#EBEBEB" d="M20.9882 28.1369L19.5294 17.7325H100.471L99.5294 29.7961L65.3176 40.8918H98.1176L94.5882 75.1124L61.5059 81.6454L27.2 75.5272L25.0824 58.1749H40.2353L41.0824 67.335L60.9412 70.0657L79.2941 65.9178L80.1412 51.2617H23.7647L22.7294 40.3733L60 28.3789L20.9882 28.1369Z"/><path fill="#CECECE" d="M22.7294 40.3733L23.7647 51.2617H60V28.3789L22.7294 40.3733Z"/><path fill="#CECECE" d="M41.0824 67.335L40.2353 58.1749H25.0824L27.2 75.5272L60 81.3688V69.9274L41.0824 67.335Z"/><path fill="#CECECE" d="M19.5294 17.7325L20.9882 28.1369L60 28.3789V17.7325H19.5294Z"/></svg>