<svg xmlns="http://www.w3.org/2000/svg" width="120" height="100" fill="none" viewBox="0 0 120 100"><path fill="#0ACF83" d="M27.1887 100C42.1953 100 54.373 92.5343 54.373 83.3343V66.6685H27.1887C12.1822 66.6685 0.00445557 74.1343 0.00445557 83.3343C0.00445557 92.5343 12.1822 100 27.1887 100Z"/><path fill="#A259FF" d="M0 50C0 40.8 12.1777 33.3342 27.1843 33.3342H54.373V66.6685H27.1887C12.1822 66.6657 0 59.2 0 50Z"/><path fill="#F24E1E" d="M0 16.6658C0 7.46575 12.1777 0 27.1843 0H54.373V33.3342H27.1887C12.1822 33.3342 0 25.8658 0 16.6658Z"/><path fill="#FF7262" d="M54.373 0H81.5572C96.5638 0 108.742 7.46575 108.742 16.6658C108.742 25.8658 96.5638 33.3315 81.5572 33.3315H54.373V0Z"/><path fill="#1ABCFE" d="M100.778 61.7851C111.394 55.2768 111.394 44.7247 100.778 38.2164C90.162 31.7081 72.9501 31.7081 62.334 38.2164C51.718 44.7247 51.718 55.2768 62.3341 61.7851C72.9501 68.2934 90.162 68.2934 100.778 61.7851Z"/></svg>