<svg width="120" height="100" viewBox="0 0 120 100" fill="none" xmlns="http://www.w3.org/2000/svg">
<path d="M0 3.34705V7.76406C2.20576 7.76406 4.01646 9.27298 4.01646 11.1111C4.01646 12.9492 2.20576 14.4582 0 14.4582V18.8752C2.20576 18.8752 4.01646 20.3841 4.01646 22.2222C4.01646 24.0604 2.20576 25.5693 0 25.5693V29.9863C2.20576 29.9863 4.01646 31.4952 4.01646 33.3333C4.01646 35.1715 2.20576 36.6804 0 36.6804V41.0974C2.20576 41.0974 4.01646 42.6063 4.01646 44.4444C4.01646 46.2826 2.20576 47.7915 0 47.7915V52.2085C2.20576 52.2085 4.01646 53.7174 4.01646 55.5556C4.01646 57.3937 2.20576 58.9026 0 58.9026V63.3196C2.20576 63.3196 4.01646 64.8285 4.01646 66.6667C4.01646 68.5048 2.20576 70.0137 0 70.0137V74.4307C2.20576 74.4307 4.01646 75.9396 4.01646 77.7778C4.01646 79.6159 2.20576 81.1248 0 81.1248V85.5418C2.20576 85.5418 4.01646 87.0507 4.01646 88.8889C4.01646 90.727 2.20576 92.2359 0 92.2359V96.6529C1.0535 96.6529 2.107 97.0096 2.83128 97.6406C3.58848 98.2716 4.01646 99.1221 4.01646 100H9.31687C9.31687 98.1619 11.1276 96.6529 13.3333 96.6529C15.5391 96.6529 17.3498 98.1619 17.3498 100H22.6502C22.6502 98.1619 24.4609 96.6529 26.6667 96.6529C28.8724 96.6529 30.6831 98.1619 30.6831 100H35.9835C35.9835 98.1619 37.7942 96.6529 40 96.6529C42.2058 96.6529 44.0165 98.1619 44.0165 100H49.3169C49.3169 98.1619 51.1276 96.6529 53.3333 96.6529C55.5391 96.6529 57.3498 98.1619 57.3498 100H62.6502C62.6502 98.1619 64.4609 96.6529 66.6667 96.6529C68.8724 96.6529 70.6831 98.1619 70.6831 100H75.9835C75.9835 98.1619 77.7942 96.6529 80 96.6529C82.2058 96.6529 84.0165 98.1619 84.0165 100H89.3169C89.3169 98.1619 91.1276 96.6529 93.3333 96.6529C95.5391 96.6529 97.3498 98.1619 97.3498 100H102.65C102.65 98.1619 104.461 96.6529 106.667 96.6529C108.872 96.6529 110.683 98.1619 110.683 100H115.984C115.984 99.1221 116.412 98.2442 117.169 97.6406C117.926 97.0096 118.947 96.6529 120 96.6529V92.2359C117.794 92.2359 115.984 90.727 115.984 88.8889C115.984 87.0507 117.794 85.5418 120 85.5418V81.1248C117.794 81.1248 115.984 79.6159 115.984 77.7778C115.984 75.9396 117.794 74.4307 120 74.4307V70.0137C117.794 70.0137 115.984 68.5048 115.984 66.6667C115.984 64.8285 117.794 63.3196 120 63.3196V58.9026C117.794 58.9026 115.984 57.3937 115.984 55.5556C115.984 53.7174 117.794 52.2085 120 52.2085V47.8738C117.794 47.8738 115.984 46.3649 115.984 44.5267C115.984 42.6886 117.794 41.1797 120 41.1797V36.7627C117.794 36.7627 115.984 35.2538 115.984 33.4156C115.984 31.5775 117.794 30.0686 120 30.0686V25.6516C117.794 25.6516 115.984 24.1427 115.984 22.3045C115.984 20.4664 117.794 18.9575 120 18.9575V14.5405C117.794 14.5405 115.984 13.0316 115.984 11.1934C115.984 9.35528 117.794 7.84636 120 7.84636V3.34705C118.947 3.34705 117.893 2.9904 117.169 2.3594C116.412 1.72839 115.984 0.877915 115.984 0H110.683C110.683 1.83813 108.872 3.34705 106.667 3.34705C104.461 3.34705 102.65 1.83813 102.65 0H97.3498C97.3498 1.83813 95.5391 3.34705 93.3333 3.34705C91.1276 3.34705 89.3169 1.83813 89.3169 0H84.0165C84.0165 1.83813 82.2058 3.34705 80 3.34705C77.7942 3.34705 75.9835 1.83813 75.9835 0H70.6831C70.6831 1.83813 68.8724 3.34705 66.6667 3.34705C64.4609 3.34705 62.6502 1.83813 62.6502 0H57.3498C57.3498 1.83813 55.5391 3.34705 53.3333 3.34705C51.1276 3.34705 49.3169 1.83813 49.3169 0H44.0165C44.0165 1.83813 42.2058 3.34705 40 3.34705C37.7942 3.34705 35.9835 1.83813 35.9835 0H30.6831C30.6831 1.83813 28.8724 3.34705 26.6667 3.34705C24.4609 3.34705 22.6502 1.83813 22.6502 0H17.3498C17.3498 1.83813 15.5391 3.34705 13.3333 3.34705C11.1276 3.34705 9.31687 1.83813 9.31687 0H4.01646C4.01646 0.877915 3.58848 1.75583 2.83128 2.3594C2.107 2.9904 1.0535 3.34705 0 3.34705Z" fill="url(#paint0_linear)"/>
<path d="M102.354 40.0549H42.4033L45.5308 27.8464H82.0741L85.4321 14.7051H32.8889L16.3621 79.7257H32.2304L39.5062 51.3306H77.5638L44.4774 78.6283L50.3045 87.1879C52.9712 85.7064 57.3498 85.5144 60.3786 85.5144C65.7448 85.5144 71.0123 86.9959 76.4773 86.9959C81.4815 86.9959 86.6502 86.7215 95.0123 83.3745L97.9424 71.9067C92.2469 73.8546 83.8189 75.7202 76.4773 75.7202C73.4485 75.7202 70.6831 75.1715 67.7531 74.7874L99.8189 48.8066L102.354 40.0549Z" fill="white"/>
<defs>
<linearGradient id="paint0_linear" x1="60.0868" y1="12.0925" x2="60.0868" y2="89.4471" gradientUnits="userSpaceOnUse">
<stop stop-color="#BF0000"/>
<stop offset="1" stop-color="#8F0000"/>
</linearGradient>
</defs>
</svg>
