<svg xmlns="http://www.w3.org/2000/svg" width="120" height="100" fill="none" viewBox="0 0 120 100"><path fill="#181616" fill-rule="evenodd" d="M60 0C26.8603 0 0 22.9487 0 51.2625C0 73.9022 17.1945 93.1151 41.0301 99.9127C44.0219 100.39 45.1397 98.7891 45.1397 97.4408C45.1397 96.2049 45.074 92.1882 45.074 87.8906C28.3726 90.9803 24.8548 81.8514 24.8548 81.8514C22.126 75.9246 18.1808 74.3516 18.1808 74.3516C12.7233 71.1776 18.5753 71.2338 18.5753 71.2338C24.5918 71.5989 27.7808 76.5145 27.7808 76.5145C33.1397 84.3513 41.8192 82.0761 45.2384 80.784C45.7644 77.4695 47.3425 75.2224 49.0521 73.9303C35.737 72.6382 21.6986 68.2282 21.6986 48.594C21.6986 43.0043 24.0329 38.4258 27.8795 34.8304C27.2548 33.5383 25.2164 28.3137 28.4712 21.2634C28.4712 21.2634 33.5014 19.887 44.9753 26.516C49.7753 25.3925 54.9041 24.8026 60 24.8026C65.0959 24.8307 70.2247 25.3925 75.0247 26.516C86.4658 19.887 91.4959 21.2634 91.4959 21.2634C94.7507 28.3137 92.7123 33.5383 92.0877 34.8304C95.9342 38.4258 98.2685 43.0043 98.2685 48.594C98.2685 68.2844 84.2301 72.6101 70.8822 73.8741C73.0192 75.4752 74.9589 78.5931 74.9589 83.3682C74.9589 90.2219 74.8931 95.7555 74.8931 97.4408C74.8931 98.8172 75.9781 100.39 79.0027 99.9127C102.838 93.1151 120 73.9303 120 51.2625C120 22.9487 93.1397 0 60 0Z" clip-rule="evenodd"/><path fill="#181616" d="M22.7178 73.5932C22.5863 73.846 22.126 73.9303 21.6986 73.7618C21.2712 73.5932 21.0082 73.2562 21.1726 73.0034C21.3041 72.7506 21.7644 72.6663 22.1918 72.8348C22.6192 73.0034 22.8822 73.3404 22.7178 73.5932Z"/><path fill="#181616" d="M25.1507 75.9246C24.8548 76.1493 24.2959 76.037 23.9343 75.6999C23.5397 75.3348 23.474 74.8573 23.7699 74.6325C24.0658 74.4078 24.5918 74.5202 24.9863 74.8573C25.3808 75.2224 25.4466 75.6999 25.1507 75.9246Z"/><path fill="#181616" d="M27.5178 78.874C27.1562 79.0987 26.5644 78.9021 26.1699 78.4246C25.8082 77.9751 25.8082 77.4133 26.1699 77.1886C26.5315 76.9639 27.1233 77.1605 27.5178 77.61C27.9123 78.0875 27.9123 78.6493 27.5178 78.874Z"/><path fill="#181616" d="M30.7726 81.711C30.4438 82.0199 29.7534 81.9357 29.2274 81.5143C28.7014 81.093 28.5699 80.5031 28.8986 80.1942C29.2274 79.8852 29.9507 79.9694 30.4438 80.3908C30.9699 80.8402 31.1014 81.4301 30.7726 81.711Z"/><path fill="#181616" d="M35.2438 83.3682C35.1123 83.7615 34.4219 83.9581 33.7315 83.7896C33.0411 83.621 32.6137 83.1435 32.7452 82.7503C32.8767 82.357 33.5671 82.1604 34.2575 82.3289C34.9151 82.4975 35.3753 82.975 35.2438 83.3682Z"/><path fill="#181616" d="M40.1425 83.6772C40.1753 84.0985 39.5836 84.4637 38.8603 84.4637C38.137 84.4918 37.5781 84.1266 37.5452 83.7053C37.5452 83.284 38.1041 82.9188 38.8274 82.9188C39.5507 82.9188 40.1425 83.2559 40.1425 83.6772Z"/><path fill="#181616" d="M44.7123 83.0312C44.811 83.4525 44.3178 83.8738 43.5945 83.9862C42.9041 84.0985 42.2466 83.8457 42.1808 83.4244C42.0822 83.0031 42.6082 82.5817 43.2986 82.4694C43.989 82.357 44.6137 82.6098 44.7123 83.0312Z"/></svg>