<svg xmlns="http://www.w3.org/2000/svg" width="120" height="100" fill="none" viewBox="0 0 120 100"><path fill="#E535AB" d="M113.928 62.8258C112.91 62.3873 112.088 62.0706 110.675 61.8758V38.1242C112.088 37.9294 112.942 37.6127 113.961 37.1742C119.711 34.6894 121.715 29.257 118.397 24.9939C115.045 20.7308 107.751 19.2692 102.001 21.7296C100.982 22.1681 100.062 22.7284 99.2735 23.3374L71.5414 11.4738C71.8699 10.6699 72.0342 9.8173 72.0342 8.91596C72.0342 3.99513 66.6784 0 60.0082 0C53.3381 0 47.9822 3.97077 47.9822 8.91596C47.9822 9.79294 48.1465 10.6456 48.4751 11.4495L20.743 23.313C19.9544 22.704 19.0672 22.1681 18.0158 21.7296C12.2656 19.2692 4.90545 20.7308 1.5868 24.9939C-1.73186 29.257 0.338196 34.7138 6.08834 37.1742C7.10693 37.6127 7.96124 37.9294 9.37413 38.1242V61.8758C7.96124 62.0706 7.13979 62.3873 6.12119 62.8258C0.371053 65.3106 -1.63328 70.743 1.68537 75.0061C5.00402 79.2692 12.2985 80.7308 18.0815 78.2704C19.1001 77.8319 19.9872 77.296 20.7758 76.7113L48.4751 88.5749C48.1465 89.3788 47.9822 90.2314 47.9822 91.084C47.9822 96.0049 53.3381 100 60.0082 100C66.6455 100 72.0342 95.9805 72.0342 91.084C72.0342 90.1096 71.8371 89.1596 71.4428 88.2826L99.0106 76.4921C99.8321 77.1742 100.851 77.7832 101.968 78.2704C107.718 80.7308 115.045 79.2692 118.364 75.0061C121.715 70.743 119.711 65.3106 113.928 62.8258ZM15.4857 61.9976C15.3214 61.9732 15.0586 61.9245 15.0586 61.9001V38.1242C17.8843 37.5639 20.8416 36.1023 22.5173 33.9342C24.1931 31.7661 24.4888 29.2814 23.6345 27.0402L51.3994 15.1523C51.498 15.2497 51.6294 15.3228 51.7609 15.3959L15.4857 61.9976ZM68.9456 85.0913C66.7441 83.313 63.5897 82.1924 60.0739 82.1924C56.6567 82.1924 53.6009 83.2399 51.4323 84.9208L23.7002 73.0329C23.7331 72.9111 23.7988 72.6918 23.8316 72.6918H96.382C96.4477 73.0329 96.5134 73.0816 96.612 73.2765L68.9456 85.0913ZM97.5977 66.1145C97.0063 66.8697 96.5791 67.7954 96.3162 68.4775H23.7988C23.5359 67.771 23.1088 66.8697 22.5173 66.1145C21.9259 65.3593 21.203 64.6772 20.4144 64.1169L56.7224 17.5152C57.7739 17.7345 58.9239 17.8563 60.0739 17.8563C61.224 17.8563 62.374 17.7345 63.4254 17.5152L99.7006 64.1169C98.8792 64.6772 98.1891 65.3593 97.5977 66.1145ZM105.056 61.9001C105.056 61.9245 104.794 61.9488 104.629 61.9976L68.3541 15.3715C68.4527 15.2984 68.5841 15.2253 68.6827 15.1279L96.4805 27.0158C95.6262 29.257 95.8891 31.7418 97.5977 33.9099C99.2735 36.1023 102.264 37.5396 105.056 38.0999V61.9001V61.9001Z"/></svg>