<svg xmlns="http://www.w3.org/2000/svg" width="946" height="728" fill="none" viewBox="0 0 946 728"><g filter="url(#filter0_d)"><path fill="#D551F1" d="M130.306 554.272C130.306 554.272 133.493 530.448 159.717 534.337C159.717 534.337 153.873 557.314 132.446 558.007L130.306 554.272Z"/><path fill="#D551F1" d="M119.829 533.367C119.829 533.367 121.02 504.558 145.45 507.97C145.45 507.97 141.654 534.504 122.069 537.271L119.829 533.367Z"/><path fill="#D551F1" d="M109.299 507.861C109.299 507.861 111.384 478.716 136.312 484.127C136.312 484.127 130.143 512.178 111.439 511.596L109.299 507.861Z"/><path fill="#D551F1" d="M101.793 483.821C101.793 483.821 107.099 454.281 125.72 452.834C125.72 452.834 120.404 483.997 104.023 489.348L101.793 483.821Z"/><path fill="#D551F1" d="M96.0242 460.228C96.0242 460.228 101.405 424.79 116.803 425.635C116.803 425.635 113.369 452.599 97.2012 465.511L96.0242 460.228Z"/><path fill="#D551F1" d="M90.9394 431.802C90.9394 431.802 96.4188 402.155 111.17 399.247C111.17 399.247 108.479 428.094 92.1658 439.203L90.9394 431.802Z"/><path fill="#D551F1" d="M85.942 405.366C85.942 405.366 93.62 375.417 103.373 373.593C103.373 373.593 101.935 402.347 87.4882 409.94L85.942 405.366Z"/><path fill="#D551F1" d="M81.7263 380.694C81.7263 380.694 84.8261 348.801 94.3642 345.04C94.3642 345.04 96.0702 370.609 83.0138 382.892L81.7263 380.694Z"/><path fill="#D551F1" d="M74.1464 348.689C74.1464 348.689 78.3545 323.064 85.8532 318.333C85.8532 318.333 87.7853 347.716 76.7153 354.516L74.1464 348.689Z"/><path fill="#D551F1" d="M68.5015 327.688L61.8137 284.196C61.8137 284.196 80.6194 315.376 70.5229 335.26L68.5015 327.688Z"/><path fill="#D551F1" d="M51.8142 285.671C51.8142 285.671 37.2801 255.069 34.4965 253.611C34.4965 253.611 57.982 271.778 59.1218 298.639L51.8142 285.671Z"/><path fill="#D551F1" d="M180.445 618.419C180.445 618.419 161.295 618.052 165.259 646.338C165.259 646.338 182.64 647.249 185.383 623.137L180.445 618.419Z"/><path fill="#D551F1" d="M159.918 597.156C159.918 597.156 138.141 599.684 143.402 628.535C143.402 628.535 162.084 629.821 164.881 602.155L159.918 597.156Z"/><path fill="#D551F1" d="M145.263 577.711C145.263 577.711 124.327 570.256 114.73 597.201C114.73 597.201 133.972 603.228 147.503 581.614L145.263 577.711Z"/><path fill="#D551F1" d="M129.893 554.539C129.893 554.539 108.401 546.459 99.5046 572.78C99.5046 572.78 121.496 577.974 132.033 558.275L129.893 554.539Z"/><path fill="#D551F1" d="M120.158 533.954C120.158 533.954 98.3125 516.471 85.1735 538.379C85.1735 538.379 107.027 552.295 121.582 538.259L120.158 533.954Z"/><path fill="#D551F1" d="M110.324 507.055C110.324 507.055 88.3018 489.139 75.4249 512.191C75.4249 512.191 99.4143 526.173 111.528 511.225L110.324 507.055Z"/><path fill="#D551F1" d="M103.757 482.828C103.757 482.828 85.641 459.399 68.5408 467.14C68.5408 467.14 87.4137 492.054 104.306 488.813L103.757 482.828Z"/><path fill="#D551F1" d="M96.4527 460.015C96.4527 460.015 77.4008 429.974 63.6971 437.233C63.6971 437.233 77.5984 460.41 97.4817 465.326L96.4527 460.015Z"/><path fill="#D551F1" d="M91.7853 430.022C91.7853 430.022 73.1429 406.807 58.8621 411.631C58.8621 411.631 74.6935 435.534 94.1741 437.094L91.7853 430.022Z"/><path fill="#D551F1" d="M87.5248 404.607C87.5248 404.607 72.0351 377.912 62.1758 378.849C62.1758 378.849 71.3489 406.102 87.3025 409.432L87.5248 404.607Z"/><path fill="#D551F1" d="M82.1438 380.018C82.1438 380.018 65.251 353.132 55.1245 354.29C55.1245 354.29 64.9475 377.834 81.9891 382.588L82.1438 380.018Z"/><path fill="#D551F1" d="M76.5032 350.151C76.5032 350.151 63.5961 327.765 54.9196 326.094C54.9196 326.094 63.408 354.245 76.1302 356.54L76.5032 350.151Z"/><path fill="#D551F1" d="M67.2266 327.007L40.3137 293.187C40.3137 293.187 50.4033 328.523 71.3273 333.58L67.2266 327.007Z"/><path fill="#D551F1" d="M46.9979 289.236C46.9979 289.236 18.5254 273.137 17.2084 270.175C17.2084 270.175 33.7921 295.524 59.0338 297.313L46.9979 289.236Z"/><path fill="#D551F1" d="M44.4279 280.803C44.4279 280.803 10.694 253.652 3 254.604C3 254.604 27.9219 252.837 44.9249 279.084L44.4279 280.803Z"/><path fill="#444053" d="M77.1263 354.546L75.233 354.929C59.5952 307.738 41.8206 280.879 25.1854 279.289L25.6905 278.069C43.3299 279.753 61.0561 306.209 77.1263 354.546Z"/><path fill="#444053" d="M98.5585 466.287L96.9264 466.635C96.0481 462.283 95.2453 457.818 94.5236 453.362C88.2772 414.587 81.5367 379.115 75.1061 352.68L75.9124 351.312C82.3563 377.783 89.9127 414.268 96.1373 453.083C96.8918 457.516 97.6649 461.956 98.5585 466.287Z"/><path fill="#444053" d="M250.739 664.141C250.432 664.036 219.668 653.692 185.486 624.291C165.472 607.083 148.101 586.655 134.018 563.764C116.422 535.17 103.443 498.976 96.2501 463.15L98.1087 463.799C114.266 544.21 155.621 595.548 186.837 622.422C220.684 651.551 251.109 661.811 251.414 661.907L250.739 664.141Z"/></g><g clip-path="url(#clip0)"><path fill="#444053" d="M858.097 83.9553L858.191 84.2425C845.576 101.963 829.673 123.113 816.964 138.779C815.757 140.277 814.551 141.843 813.392 143.445L813.029 143.123C814.196 141.512 815.395 139.937 816.617 138.44C829.326 122.782 845.474 101.676 858.097 83.9553Z"/><path fill="#444053" d="M813.337 142.696L813.589 143.175C790.456 175.056 788.927 224.562 788.872 224.989L783.991 218.775C784.07 218.339 790.038 174.804 813.337 142.696Z"/><path stroke="#444053" stroke-miterlimit="10" d="M919.169 192.82C919.169 192.82 891.889 177.154 870.633 182.785C849.377 188.416 801.51 162.932 801.51 162.932C801.51 162.932 781.192 153.819 777.069 143.427C777.069 143.427 763.121 127.16 762.325 118.726C761.528 110.292 747.959 89.1339 739.105 88.3245"/><path stroke="#444053" stroke-miterlimit="10" d="M915.219 207.895C915.219 207.895 901.485 197.677 903.077 185.77"/><path stroke="#444053" stroke-miterlimit="10" d="M894.144 221.09C894.144 221.09 874.504 213.213 872.525 182.341"/><path stroke="#444053" stroke-miterlimit="10" d="M862.441 229.08C862.441 229.08 843.668 211.881 849.897 181.836"/><path stroke="#444053" stroke-miterlimit="10" d="M824.351 220.672C824.351 220.672 811.839 191.732 822.972 172.898"/><path stroke="#444053" stroke-miterlimit="10" d="M919.485 173.742C919.485 173.742 905.293 178.72 908.328 186.971"/><path stroke="#444053" stroke-miterlimit="10" d="M902.336 145.272C902.336 145.272 883.327 151.931 882.877 181.619"/><path stroke="#444053" stroke-miterlimit="10" d="M875.829 138.423C875.829 138.423 858.53 162.001 859.792 183.429"/><path stroke="#444053" stroke-miterlimit="10" d="M845.568 147.666C845.568 147.666 828.38 165.804 830.588 175.892"/><path stroke="#444053" stroke-miterlimit="10" d="M835.161 141.26C835.161 141.26 819.045 144.454 816.79 138.649"/><path stroke="#444053" stroke-miterlimit="10" d="M814.22 119.779C814.22 119.779 822.365 131.686 824.47 129.023"/><g filter="url(#filter1_d)"><path fill="#D551F1" d="M946 210.114C946 210.114 933.992 204.727 895.792 224.04C857.592 243.354 852.822 240.925 842.927 237.966C833.032 235.007 827.529 234.302 816.909 218.148C816.909 218.148 809.434 173.411 802.196 166.474C794.958 159.538 764.209 170.426 764.209 170.426C764.209 170.426 727.35 179.765 720.325 125.402C720.325 125.402 725.307 84.3991 718.519 71.8224C718.519 71.8224 732.222 78.3414 754.835 67.81C777.447 57.2786 795.558 79.1247 795.558 79.1247C795.558 79.1247 801.258 95.4266 800.659 105.14C800.06 114.853 803.678 118.509 814.464 113.844C814.464 113.844 819.763 105.523 812.257 91.7711C804.751 78.0194 799.397 67.7752 801.495 57.0871C803.592 46.3991 809.608 31.6029 828.956 24.1961C848.304 16.7893 874.583 15.3619 887.198 9.56527C899.813 3.76865 902.864 -0.00872803 902.864 -0.00872803C902.864 -0.00872803 895.106 8.57305 913.39 44.9717C931.674 81.3703 920.021 97.1935 920.021 97.1935C920.021 97.1935 910.291 122.782 867.345 120.693C867.345 120.693 825.96 122.364 848.525 141.739C848.525 141.739 862.969 138.492 884.573 130.911C906.176 123.33 921.771 154.611 925.642 176.379C929.514 198.147 946 210.114 946 210.114Z"/><path fill="#444053" d="M890.375 27.5992L890.596 27.5383C892.26 34.5012 873.763 62.3528 857.955 84.5732L857.765 84.4166C880.071 53.1183 891.653 32.9433 890.375 27.5992Z"/><path stroke="#444053" stroke-miterlimit="10" d="M894.941 112.251C894.941 112.251 854.312 115.506 845.119 101.989"/><path stroke="#444053" stroke-miterlimit="10" d="M805.673 59.794C805.673 59.794 824.738 104.966 838.575 110.719"/><path stroke="#444053" stroke-miterlimit="10" d="M825.668 38.2786C825.668 38.2786 837.377 79.8298 851.884 92.7982"/><path stroke="#444053" stroke-miterlimit="10" stroke-width=".75" d="M912.034 77.9323C912.034 77.9323 881.143 92.5719 862.591 77.767"/><path stroke="#444053" stroke-miterlimit="10" stroke-width=".75" d="M853.193 29.4183C853.193 29.4183 860.249 59.9681 869.75 67.34"/><path stroke="#444053" stroke-miterlimit="10" stroke-width=".75" d="M907.374 43.7532C907.374 43.7532 890.029 51.0033 883.524 45.4939"/></g><g filter="url(#filter2_d)"><g filter="url(#filter3_d)"><path fill="#D551F1" d="M296.837 14.485C296.837 14.485 289.711 25.5502 303.082 66.2128C316.454 106.875 313.338 111.228 308.93 120.568C304.521 129.907 302.999 135.243 285.436 143.323C285.436 143.323 240.085 144.009 232.142 150.126C224.199 156.243 230.357 188.277 230.357 188.277C230.357 188.277 234.067 226.119 179.265 224.919C179.265 224.919 139.472 213.849 126.02 218.676C126.02 218.676 134.519 206.104 127.495 182.169C120.47 158.234 144.784 143.601 144.784 143.601C144.784 143.601 161.756 140.408 171.269 142.456C180.783 144.504 184.94 141.473 181.943 130.11C181.943 130.11 174.511 123.625 159.789 128.986C145.068 134.346 134.138 138.104 123.884 134.429C113.631 130.754 99.9035 122.589 95.4795 102.35C91.0555 82.1098 93.5819 55.9138 89.7409 42.5726C85.9 29.2314 82.6225 25.6486 82.6225 25.6486C82.6225 25.6486 89.9449 34.6052 128.672 21.9817C167.4 9.35813 181.298 23.2507 181.298 23.2507C181.298 23.2507 205.14 36.7045 196.64 78.853C196.64 78.853 192.091 120.021 214.627 100.614C214.627 100.614 213.582 85.8465 209.324 63.3511C205.065 40.8558 238.33 30.1236 260.432 29.5578C282.534 28.992 296.837 14.485 296.837 14.485Z"/></g><path fill="#444053" d="M108.047 42.1334L108.02 41.9059C115.154 41.3044 139.919 63.7658 159.52 82.7252L159.337 82.8888C131.734 56.1458 113.522 41.6712 108.047 42.1334Z"/><path stroke="#444053" stroke-miterlimit="10" d="M192.427 50.3041C192.427 50.3041 189.558 90.9615 174.816 98.0256"/><path stroke="#444053" stroke-miterlimit="10" d="M127.187 130.703C127.187 130.703 174.705 118.623 182.467 105.804"/><path stroke="#444053" stroke-miterlimit="10" d="M108.91 107.71C108.91 107.71 151.747 102.36 166.743 89.9599"/><path stroke="#444053" stroke-miterlimit="10" stroke-width=".75" d="M161.058 28.2612C161.058 28.2612 170.903 60.9973 153.485 77.1215"/><path stroke="#444053" stroke-miterlimit="10" stroke-width=".75" d="M104.274 79.169C104.274 79.169 135.537 76.7697 144.249 68.4809"/><path stroke="#444053" stroke-miterlimit="10" stroke-width=".75" d="M126.566 27.747C126.566 27.747 131.135 45.9832 124.713 51.5888"/></g><path stroke="#444053" stroke-miterlimit="10" d="M799.35 129.763C799.35 129.763 799.303 156.387 792.774 158.276"/><path stroke="#444053" stroke-miterlimit="10" d="M745.673 164.255C745.673 164.255 771.747 166.709 783.77 151.913"/><path stroke="#444053" stroke-miterlimit="10" d="M792.617 98.3076C792.617 98.3076 786.309 125.289 768.9 132.582"/><path stroke="#444053" stroke-miterlimit="10" d="M730.03 135.812C730.03 135.812 748.488 142.896 764.359 124.854"/><path stroke="#444053" stroke-miterlimit="10" d="M772.094 75.095C772.094 75.095 770.351 98.0291 759.061 108.761"/><path stroke="#444053" stroke-miterlimit="10" d="M730.732 100.866C730.732 100.866 746.051 100.98 749.654 95.4702"/><path fill="#D551F1" d="M234.156 646.341C234.156 646.341 244.65 638.699 255.05 644.139C255.05 644.139 251.849 650.945 238.682 650.301L234.156 646.341Z"/><path fill="#D551F1" d="M232.871 646.75C232.871 646.75 229.678 660.206 237.68 669.301C237.68 669.301 242.498 663.765 237.72 650.214L232.871 646.75Z"/><path fill="#D551F1" d="M219.783 633.868C219.783 633.868 220.571 622.449 243.909 626.235C243.909 626.235 244.019 633.599 235.82 637.089C227.62 640.579 223.875 637.637 219.783 633.868Z"/><path fill="#D551F1" d="M218.348 633.79C218.348 633.79 208.476 637.272 217.275 661.459C217.275 661.459 223.788 659.857 224.939 650.24C226.09 640.622 222.629 637.289 218.348 633.79Z"/><path fill="#D551F1" d="M205.126 617.558C205.126 617.558 203.793 598.775 227.651 600.708C227.651 600.708 229.346 617.706 209.344 622.075L205.126 617.558Z"/><path fill="#D551F1" d="M189.365 596.391C189.365 596.391 192.629 575.11 216.479 581.455C216.479 581.455 216.574 599.855 193.252 601.474L189.365 596.391Z"/><path fill="#D551F1" d="M177.838 574.475C177.838 574.475 183.357 553.69 206.947 559.948C206.947 559.948 201.325 578.592 179.407 578.304L177.838 574.475Z"/><g filter="url(#filter4_d)"><path fill="#D551F1" d="M166.894 553.064C166.894 553.064 172.248 531.548 195.057 538.007C195.057 538.007 187.441 558.451 168.392 556.728L166.894 553.064Z"/><path fill="#D551F1" d="M159.838 532.723C159.838 532.723 163.953 506.412 185.225 512.235C185.225 512.235 179.044 536.17 161.407 536.553L159.838 532.723Z"/><path fill="#D551F1" d="M153.222 508.153C153.222 508.153 158.166 481.633 179.667 489.344C179.667 489.344 171.223 514.411 154.721 511.817L153.222 508.153Z"/><path fill="#D551F1" d="M149.13 485.262C149.13 485.262 156.968 458.734 173.612 459.456C173.612 459.456 165.593 487.473 150.518 490.58L149.13 485.262Z"/><path fill="#D551F1" d="M146.529 462.973C146.529 462.973 155.06 431.039 168.605 433.511C168.605 433.511 162.7 457.881 147.01 467.951L146.529 462.973Z"/><path fill="#D551F1" d="M145.046 436.322C145.046 436.322 153.049 409.715 166.421 408.671C166.421 408.671 160.973 434.851 145.346 443.25L145.046 436.322Z"/><path fill="#D551F1" d="M143.43 411.508C143.43 411.508 153.412 384.866 162.242 384.266C162.242 384.266 157.914 410.498 144.313 415.877L143.43 411.508Z"/><path fill="#D551F1" d="M142.318 388.4C142.318 388.4 148.452 359.469 157.299 357.067C157.299 357.067 156.092 380.723 143.225 390.558L142.318 388.4Z"/><path fill="#D551F1" d="M139.007 358.189C139.007 358.189 145.456 335.134 152.6 331.617C152.6 331.617 151.188 358.799 140.663 363.821L139.007 358.189Z"/><path fill="#D551F1" d="M136.239 338.293L134.939 297.638C134.939 297.638 148.279 328.327 137.225 345.465L136.239 338.293Z"/><path fill="#D551F1" d="M125.927 297.891C125.927 297.891 116.308 268.203 113.998 266.558C113.998 266.558 132.865 285.819 131.02 310.598L125.927 297.891Z"/><path fill="#D551F1" d="M204.479 617.462C204.479 617.462 187.559 615.016 188.064 641.414C188.064 641.414 203.359 644.165 208.35 622.336L204.479 617.462Z"/><path fill="#D551F1" d="M188.56 595.686C188.56 595.686 169.007 595.607 170.6 622.667C170.6 622.667 187.007 625.905 192.424 600.821L188.56 595.686Z"/><path fill="#D551F1" d="M177.648 576.224C177.648 576.224 159.901 567.077 148.539 590.751C148.539 590.751 164.939 598.401 179.217 580.054L177.648 576.224Z"/><path fill="#D551F1" d="M166.5 553.264C166.5 553.264 148.326 543.481 137.651 566.659C137.651 566.659 156.573 573.848 167.998 556.928L166.5 553.264Z"/><path fill="#D551F1" d="M160.066 533.298C160.066 533.298 142.579 514.846 128.615 533.507C128.615 533.507 146.489 548.686 160.87 537.406L160.066 533.298Z"/><path fill="#D551F1" d="M154.216 507.526C154.216 507.526 136.618 488.657 122.765 508.397C122.765 508.397 142.523 523.872 154.839 511.487L154.216 507.526Z"/><path fill="#D551F1" d="M150.975 484.568C150.975 484.568 137.422 461.068 121.456 466.29C121.456 466.29 135.522 491.235 150.825 490.12L150.975 484.568Z"/><path fill="#D551F1" d="M146.931 462.824C146.931 462.824 133.251 433.154 120.345 438.306C120.345 438.306 130.192 461.11 147.278 467.812L146.931 462.824Z"/><path fill="#D551F1" d="M145.985 434.781C145.985 434.781 131.942 411.421 118.783 414.276C118.783 414.276 130.263 437.958 147.349 441.535L145.985 434.781Z"/><path fill="#D551F1" d="M144.912 410.986C144.912 410.986 134.032 384.779 125.201 384.553C125.201 384.553 130.429 410.577 144.203 415.39L144.912 410.986Z"/><path fill="#D551F1" d="M142.76 387.825C142.76 387.825 130.657 361.288 121.567 361.236C121.567 361.236 127.764 383.926 142.35 390.167L142.76 387.825Z"/><path fill="#D551F1" d="M140.939 359.791C140.939 359.791 131.887 337.823 124.381 335.334C124.381 335.334 128.907 362.106 139.929 365.614L140.939 359.791Z"/><path fill="#D551F1" d="M135.183 337.527L114.944 303.522C114.944 303.522 120.124 337.066 138.116 344.011L135.183 337.527Z"/><path fill="#D551F1" d="M121.283 300.632C121.283 300.632 97.7793 282.72 96.9278 279.857C96.9278 279.857 108.92 304.949 131.083 309.371L121.283 300.632Z"/><path fill="#D551F1" d="M119.903 292.609C119.903 292.609 92.9146 263.974 86 264C86 264 108.258 265.123 120.526 291.086L119.903 292.609Z"/><path fill="#444053" d="M141.023 363.893L139.306 364.036C130.472 319.001 117.586 292.392 103.023 289.101L103.6 288.036C119.042 291.524 131.929 317.758 141.023 363.893Z"/><path fill="#444053" d="M148.129 468.813L146.647 468.952C146.332 464.861 146.095 460.675 145.929 456.506C144.518 420.229 142.318 386.929 139.433 361.958L140.292 360.792C143.186 385.797 146 420.116 147.388 456.427C147.585 460.579 147.798 464.739 148.129 468.813Z"/><path fill="#444053" d="M261.87 667.169C261.609 667.038 235.465 654.157 208.319 623.407C192.424 605.409 179.212 584.746 169.173 562.185C156.629 534.003 148.981 499.354 146.418 465.679L147.995 466.48C153.759 542.062 184.926 593.736 209.714 621.84C236.592 652.303 262.445 665.071 262.705 665.193L261.87 667.169Z"/></g><g filter="url(#filter5_d)"><path fill="#E8EAF2" d="M874.946 115.993V642.424C874.946 658.091 861.266 670.807 844.37 670.807H197.352C180.463 670.807 166.784 658.073 166.784 642.424V115.993C166.784 100.327 180.463 84.3208 197.352 84.3208L844.338 86.0616C861.227 86.0529 874.946 100.309 874.946 115.993Z"/></g><path fill="#65617D" d="M874.946 116.15V140.52H166.784V116.15C166.784 107.708 169.821 99.6125 175.229 93.6434C180.636 87.6743 187.97 84.3208 195.617 84.3208H846.081C849.87 84.3174 853.622 85.1381 857.123 86.736C860.625 88.334 863.807 90.6778 866.487 93.6336C869.168 96.5895 871.294 100.099 872.746 103.963C874.197 107.826 874.945 111.968 874.946 116.15V116.15Z"/><path fill="#FA5959" d="M201.089 123.661C206.715 123.661 211.275 118.627 211.275 112.416C211.275 106.206 206.715 101.171 201.089 101.171C195.463 101.171 190.902 106.206 190.902 112.416C190.902 118.627 195.463 123.661 201.089 123.661Z" opacity=".8"/><path fill="#FED253" d="M230.742 123.661C236.368 123.661 240.929 118.627 240.929 112.416C240.929 106.206 236.368 101.171 230.742 101.171C225.116 101.171 220.555 106.206 220.555 112.416C220.555 118.627 225.116 123.661 230.742 123.661Z" opacity=".8"/><path fill="#8CCF4D" d="M260.387 123.661C266.013 123.661 270.574 118.627 270.574 112.416C270.574 106.206 266.013 101.171 260.387 101.171C254.761 101.171 250.201 106.206 250.201 112.416C250.201 118.627 254.761 123.661 260.387 123.661Z" opacity=".8"/><path fill="url(#paint0_linear)" d="M859.216 659.884L842.005 632.354C842.005 632.354 841.681 625.539 840.554 623.946C839.426 622.354 840.317 618.802 840.317 618.802C840.317 618.802 841.524 616.853 840.475 616.679C839.426 616.505 840.317 612.162 840.317 612.162L840.231 605.251C840.231 605.251 841.2 598.61 840.396 597.017C840.162 596.587 840.044 596.092 840.058 595.59C840.072 595.088 840.217 594.602 840.475 594.189C840.475 594.189 841.437 590.376 840.475 589.402C839.513 588.427 839.75 582.491 839.994 577.8C840.238 573.108 838.307 570.454 838.307 569.74C838.307 569.026 831.952 562.124 831.952 561.506C831.952 560.888 827.931 558.312 825.518 557.607C823.106 556.902 821.899 556.371 821.978 556.014C822.057 555.658 818.202 554.274 818.202 554.274C818.202 554.274 814.819 554.013 813.534 552.15C812.249 550.287 808.315 549.757 808.204 549.739C808.094 549.722 808.149 549.487 808.125 549.365L808.054 548.964C808.354 548.407 808.638 547.824 808.89 547.224L809.119 546.684C810.528 546.689 811.904 546.215 813.061 545.326C813.627 544.801 814.09 544.153 814.421 543.423C814.752 542.692 814.944 541.894 814.985 541.079C815.054 539.443 814.731 537.815 814.046 536.362C813.337 534.76 812.304 533.115 812.659 531.383C812.817 530.635 813.219 529.982 813.447 529.251C813.756 527.823 813.549 526.319 812.872 525.056C812.257 523.767 811.413 522.636 810.735 521.391C809.866 519.789 809.287 518.015 809.032 516.169C808.98 515.195 808.769 514.24 808.409 513.349C808.043 512.721 807.562 512.185 806.998 511.774C804.474 509.782 801.425 508.766 798.325 508.884C796.133 508.963 793.949 509.615 791.773 509.319C790.475 509.072 789.198 508.702 787.957 508.214C785.261 507.344 782.146 506.969 779.797 508.675C777.447 510.381 776.517 513.732 774.924 516.352C773.513 518.676 771.455 520.617 770.383 523.071C770.383 523.028 770.383 522.975 770.383 522.932C770.121 523.502 769.92 524.104 769.783 524.725C769.488 526.684 769.609 528.693 770.138 530.591C770.262 531.61 770.726 532.541 771.439 533.202C772.228 533.759 773.324 533.629 774.254 533.811C774.254 533.977 774.175 534.142 774.143 534.316C773.182 539.306 773.96 544.512 776.324 548.896C778.687 553.279 782.461 556.518 786.893 557.964C786.893 558.147 786.893 558.33 786.893 558.504C786.893 559.013 786.864 559.522 786.806 560.027V560.027C786.806 560.027 778.724 558.19 776.556 559.435C774.388 560.68 770.122 561.646 769.46 562.359C768.798 563.073 767.205 562.533 765.755 566.711C764.304 570.889 764.178 575.128 762.301 577.077C760.425 579.027 759.486 580.35 759.408 581.768C759.329 583.187 759.644 583.509 758.919 583.979C758.193 584.449 757.153 586.286 757.476 586.991C757.586 587.481 757.561 587.997 757.404 588.472C757.246 588.946 756.964 589.358 756.593 589.654C756.217 589.945 755.915 590.338 755.717 590.795C755.52 591.253 755.433 591.759 755.465 592.265C755.465 592.265 754.984 594.215 753.888 594.659C752.793 595.102 752.036 598.018 752.036 598.018L748.393 602.649L741.163 593.823C740.62 593.163 739.863 592.768 739.056 592.722C738.25 592.676 737.46 592.985 736.858 593.579L733.31 597.061C731.943 597.429 730.707 598.241 729.762 599.393C728.989 600.271 728.364 601.293 727.917 602.414L725.978 604.346C725.365 605.183 724.991 606.202 724.903 607.274C724.814 608.346 725.016 609.423 725.481 610.369L730.109 616.017V616.07C728.491 616.271 726.965 617.002 725.725 618.167C718.811 624.895 718.724 631.101 719.773 633.929C720.821 636.758 729.581 647.664 729.581 647.664C729.581 647.664 734.674 654.966 742.022 658.857L741.967 658.918C741.825 659.092 741.676 659.274 741.534 659.475L741.415 659.64C741.381 659.7 741.344 659.758 741.305 659.814L741.179 660.023L741.076 660.197L740.934 660.458L740.848 660.623L740.682 660.972C740.682 660.972 740.643 661.041 740.627 661.085C740.611 661.128 740.493 661.398 740.43 661.563C740.405 661.623 740.384 661.684 740.367 661.746C740.319 661.859 740.28 661.981 740.241 662.094L740.17 662.329C740.17 662.443 740.099 662.556 740.067 662.669L739.996 662.921L739.902 663.313C739.902 663.391 739.862 663.47 739.838 663.548C739.815 663.626 739.752 663.966 739.712 664.183C739.704 664.268 739.691 664.352 739.673 664.436L739.602 664.897C739.602 665.001 739.602 665.106 739.563 665.219L739.515 665.654C739.515 665.767 739.515 665.88 739.515 665.994C739.515 666.107 739.515 666.324 739.515 666.498V666.812C739.515 667.09 739.515 667.369 739.515 667.682C739.35 678.048 739.902 679.554 739.902 679.554C740.258 680.513 740.842 681.348 741.593 681.97C742.344 682.592 743.233 682.978 744.167 683.088C744.628 683.125 745.092 683.098 745.547 683.009C749.726 682.209 759.534 680.346 762.995 681.06C765.076 681.486 768.924 680.851 771.668 680.285L772.393 680.128L772.898 681.869L774.475 681.39L775.831 682.261C776.186 682.496 776.477 682.679 776.682 682.8C778.259 688.745 784.709 686.717 784.709 686.717L786.238 687.692L801.755 688.136C803.505 689.3 805.353 690.274 807.274 691.043C807.532 691.13 807.795 691.194 808.062 691.234C809.502 691.358 810.948 691.387 812.391 691.321C813.581 691.321 814.496 691.234 814.496 691.234C814.496 691.234 814.338 686.578 814.117 681.373C818.927 681.243 823.726 680.81 828.491 680.076C836.777 678.466 840.238 670.145 841.508 665.698C841.883 667.515 842.146 669.359 842.296 671.216C842.636 672.839 843.066 674.437 843.581 676.003C844.036 677.261 844.632 678.451 845.355 679.545C851.466 677.239 847.768 673.783 846.483 672.278C845.198 670.772 847.366 669.536 847.366 669.536C847.366 669.536 849.053 668.291 848.896 667.142C848.738 665.994 848.651 664.749 854.123 664.845C859.595 664.94 859.216 659.884 859.216 659.884ZM774.293 603.31C774.364 603.824 775.129 609.272 775.815 610.708C776.013 611.667 776.074 612.653 775.996 613.633C772.756 613.345 769.381 613.189 769.381 613.189C769.479 613.32 769.539 613.481 769.555 613.65L769.05 613.519L768.309 613.319L774.278 603.301L774.293 603.31ZM762.467 624.086L768.08 625.06L768.546 625.147C768.389 626.114 768.292 627.091 768.254 628.072C768.254 628.159 768.388 628.272 768.561 628.403C768.486 628.885 768.452 629.375 768.459 629.865C768.546 630.352 771.171 631.414 774.175 632.293C774.136 632.476 774.096 632.641 774.049 632.798C771.392 631.257 767.213 630.535 766.732 629.395C766.251 628.255 752.012 622.78 752.012 622.78C752.012 622.78 751.492 622.475 750.593 621.997L754.346 622.78L755.371 622.667C757.705 623.314 760.076 623.794 762.467 624.103V624.086Z"/><path fill="#65617D" d="M840.909 663.731C840.909 663.731 838.677 678.605 827.355 680.798C816.033 682.992 778.259 682.539 778.259 682.539C778.259 682.539 756.664 679.058 748.85 658.952C741.037 638.847 736.022 630.805 742.716 630.448C749.41 630.091 785.513 643.912 787.586 644.086C789.66 644.26 842.903 613.493 840.909 663.731Z"/><path fill="#000" d="M840.909 663.731C840.909 663.731 838.677 678.605 827.355 680.798C816.033 682.992 778.259 682.539 778.259 682.539C778.259 682.539 756.664 679.058 748.85 658.952C741.037 638.847 736.022 630.805 742.716 630.448C749.41 630.091 785.513 643.912 787.586 644.086C789.66 644.26 842.903 613.493 840.909 663.731Z" opacity=".05"/><path fill="#3F3D56" d="M739.594 680.276C739.95 681.222 740.531 682.045 741.274 682.657C742.018 683.27 742.897 683.65 743.82 683.758C744.276 683.795 744.734 683.769 745.184 683.679C749.331 682.887 759.053 681.068 762.482 681.747C764.54 682.165 768.356 681.538 771.069 680.973C772.874 680.598 774.222 680.25 774.222 680.25C774.222 680.25 771.029 668.544 770.635 668.196C770.241 667.847 756.285 658.622 756.285 658.622L745.247 657.751C743.763 658 742.422 658.87 741.502 660.179C740.335 661.737 739.334 664.296 739.271 668.483C739.05 678.779 739.594 680.276 739.594 680.276Z"/><path fill="#000" d="M739.594 680.276C739.95 681.222 740.531 682.045 741.274 682.657C742.018 683.27 742.897 683.65 743.82 683.758C742.735 682.215 741.735 680.602 740.824 678.927L740.879 670.398C740.654 668.058 740.929 665.693 741.682 663.492C742.435 661.291 743.645 659.316 745.216 657.725C745.216 657.725 739.397 658.16 739.239 668.457C739.082 678.753 739.594 680.276 739.594 680.276Z" opacity=".05"/><path fill="#000" d="M787.507 661.624L797.757 652.738L813.936 635.139C813.936 635.139 812.194 635.043 809.552 634.922C808.898 635.383 807.061 636.836 806.99 638.594C806.911 640.744 802.622 638.742 800.391 639.978C798.159 641.214 787.239 656.637 785.324 656.515C783.408 656.393 781.894 655.445 781.097 656.942L781.042 657.037L787.507 661.624Z" opacity=".1"/><path fill="#000" d="M741.439 660.206L742.559 660.771C750.364 664.462 760.007 672.208 760.693 673.618C761.134 674.488 766.724 678.213 771.037 681.025C772.843 680.65 774.191 680.302 774.191 680.302C774.191 680.302 770.998 668.596 770.603 668.248C770.209 667.9 756.254 658.674 756.254 658.674L745.216 657.803C743.723 658.037 742.371 658.898 741.439 660.206V660.206Z" opacity=".1"/><path fill="#65617D" d="M719.757 634.965C720.797 637.776 729.486 648.604 729.486 648.604C729.486 648.604 735.005 656.515 742.795 660.214C750.585 663.913 760.251 671.651 760.969 673.061C761.426 673.931 767.655 678.1 772.007 680.946L772.992 681.582L775.168 682.974L776.32 683.705L781.642 678.962C784.267 676.612 786.877 674.245 786.916 674.114C786.995 673.853 788.036 670.859 787.791 670.685C787.673 670.589 787.121 669.379 786.112 667.961C785.044 666.389 783.652 665.12 782.052 664.261C779.725 662.945 777.872 660.797 776.793 658.169C776.793 658.169 776.446 657.89 775.917 657.525C774.83 656.703 773.614 656.112 772.33 655.784C770.58 655.54 767.316 651.58 767.316 651.58C766.038 650.662 764.972 649.429 764.201 647.977C763.365 646.045 751.003 636.662 749.859 635.792L779.82 657.037L786.987 662.12L797.237 653.234L813.424 635.644C813.424 635.644 811.248 635.522 808.078 635.374C800.194 635 786.254 634.408 784.488 634.852C783.052 635.219 781.571 635.325 780.104 635.165C780.104 635.165 776.162 635.365 773.489 633.825C770.816 632.284 766.716 631.579 766.235 630.439C765.754 629.299 751.649 623.85 751.649 623.85C751.649 623.85 732.443 612.588 725.583 619.272C718.724 625.957 718.724 632.145 719.757 634.965Z"/><path fill="#EE8E9E" d="M781.705 570.384L784.172 579.445L787.326 599.855L799.042 600.725L802.433 594.519L805.815 588.322C805.815 588.322 807.928 580.071 809.442 572.099C810.782 565.031 811.657 558.173 810.23 557.442C808.937 556.78 808.086 554.404 807.534 551.845C807.463 551.532 807.4 551.21 807.345 550.888C806.949 548.722 806.686 546.53 806.556 544.325C806.556 544.325 782.004 542.924 785.434 554.1C786.047 556.005 786.359 558.013 786.356 560.035C786.355 560.541 786.329 561.047 786.278 561.55C786.11 563.291 785.617 564.975 784.83 566.496C784.043 568.016 782.978 569.34 781.705 570.384V570.384Z"/><path fill="#E3E8F4" d="M776.588 568.887L777.463 584.284L779.458 597.391L781.689 603.484L783.684 636.706C783.684 636.706 802.898 639.16 807.573 636.662C807.908 636.504 808.198 636.252 808.417 635.931C814.031 626.496 812.217 599.28 812.217 599.28L814.37 581.69L812.935 572.551L809.466 572.151L806.793 571.829C806.793 571.829 806.194 572.647 805.326 573.918C802.961 577.399 798.617 584.136 798.908 586.973C799.303 590.846 798.427 594.806 797.071 595.424C795.715 596.042 794.604 597.096 794.359 596.034C794.026 595.144 793.944 594.164 794.123 593.222C794.359 591.725 793.09 587.13 793.09 587.13C793.09 587.13 790.937 581.768 791.095 579.479C791.253 577.19 790.858 574.553 790.22 573.935C789.581 573.317 788.706 572.699 789.431 569.888C790.157 567.077 786.278 561.593 786.278 561.593L776.588 568.887Z"/><path fill="#000" d="M801.975 607.34L802.764 633.651L807.368 636.462C807.704 636.31 807.995 636.06 808.212 635.74C813.857 626.322 812.004 599.071 812.004 599.071L814.157 581.472L812.722 572.342L809.261 571.933C810.601 564.875 811.476 558.007 810.049 557.276C808.756 556.615 807.905 554.239 807.353 551.689L804.869 570.297C804.869 570.297 805.074 571.977 805.145 573.709C805.25 574.804 805.184 575.911 804.948 576.981C804.388 578.565 804.79 581.385 804.79 581.385C803.347 584.179 802.63 589.358 802.283 594.354C801.794 601.021 801.975 607.34 801.975 607.34Z" opacity=".1"/><path fill="#3F3D56" d="M807.4 551.262C807.4 551.262 811.421 551.819 812.69 553.664C813.96 555.51 817.318 555.779 817.318 555.779C817.318 555.779 821.142 557.181 821.064 557.52C820.985 557.86 822.175 558.39 824.572 559.104C826.969 559.818 830.943 562.359 830.943 562.977C830.943 563.595 837.25 570.454 837.25 571.159C837.25 571.864 839.166 574.501 838.922 579.166C838.677 583.831 838.449 589.724 839.403 590.69C840.357 591.656 839.403 595.442 839.403 595.442C839.148 595.853 839.005 596.337 838.991 596.835C838.977 597.333 839.093 597.825 839.324 598.253C840.112 599.837 839.166 606.434 839.166 606.434L839.245 613.302C839.245 613.302 838.37 617.653 839.403 617.784C840.436 617.915 839.245 619.899 839.245 619.899C839.245 619.899 838.37 623.38 839.482 624.999C840.593 626.618 840.916 633.364 840.916 633.364L857.97 660.728C857.97 660.728 858.215 665.741 852.79 665.654C847.366 665.567 847.453 666.794 847.61 667.943C847.768 669.092 846.097 670.31 846.097 670.31C846.097 670.31 843.944 671.546 845.221 673.043C846.499 674.54 850.165 677.97 844.102 680.259C843.391 679.182 842.803 678.013 842.351 676.777C841.837 675.227 841.41 673.643 841.074 672.034C841.074 672.034 840.514 665.341 839.403 664.462C838.291 663.583 838.472 659.335 838.472 659.335C838.472 659.335 840.049 655.906 837.834 654.496C835.618 653.086 803.237 633.294 803.237 633.294L802.448 606.983C802.448 606.983 801.897 587.539 805.24 581.029C805.24 581.029 804.845 578.209 805.397 576.625C805.949 575.04 805.318 569.94 805.318 569.94L807.4 551.262Z"/><path fill="#000" d="M786.514 561.855C786.514 561.855 778.504 560.035 776.351 561.263C774.199 562.49 769.973 563.465 769.334 564.17C768.695 564.875 767.103 564.344 765.668 568.521C764.233 572.699 764.091 576.886 762.238 578.818C760.385 580.75 759.455 582.073 759.376 583.483C759.297 584.893 759.613 585.224 758.895 585.685C758.178 586.146 757.137 587.965 757.46 588.67C757.783 589.375 774.017 604.859 774.017 604.859C774.017 604.859 774.806 610.76 775.531 612.249C776.256 613.737 774.743 634.338 773.166 635.748C771.589 637.158 783.928 637.019 783.928 637.019C783.928 637.019 784.488 623.511 784.969 622.815C785.45 622.118 784.645 607.679 784.645 607.679C784.645 607.679 784.567 595.364 785.6 592.1C786.632 588.836 786.522 578.026 786.522 578.026C786.522 578.026 787.437 571.533 788.548 570.019C789.66 568.504 786.514 561.855 786.514 561.855Z" opacity=".1"/><path fill="#3F3D56" d="M786.278 561.559C786.278 561.559 778.259 559.731 776.107 560.967C773.954 562.203 769.736 563.169 769.097 563.874C768.459 564.579 766.866 564.048 765.431 568.182C763.996 572.316 763.854 576.538 762.001 578.478C760.149 580.419 759.21 581.734 759.132 583.135C759.053 584.536 759.376 584.876 758.659 585.337C757.941 585.798 756.9 587.626 757.224 588.331C757.547 589.036 773.82 604.502 773.82 604.502C773.82 604.502 774.609 610.395 775.334 611.892C776.059 613.389 774.546 633.973 772.969 635.392C771.392 636.81 783.684 636.706 783.684 636.706C783.684 636.706 784.243 623.198 784.717 622.493C785.19 621.788 784.401 607.357 784.401 607.357C784.401 607.357 784.322 595.042 785.355 591.786C786.388 588.531 786.278 577.713 786.278 577.713C786.278 577.713 787.192 571.22 788.304 569.705C789.416 568.191 786.278 561.559 786.278 561.559Z"/><path fill="#000" d="M785.434 554.108C786.047 556.014 786.359 558.022 786.356 560.044C790.276 561.33 794.474 561.128 798.278 559.47C802.081 557.812 805.271 554.793 807.337 550.897C806.941 548.731 806.678 546.539 806.548 544.334C806.548 544.334 782.004 542.933 785.434 554.108Z" opacity=".1"/><path fill="#EE8E9E" d="M773.323 540.2C773.329 545.354 775.126 550.31 778.344 554.045C781.563 557.779 785.956 560.009 790.62 560.272C795.283 560.536 799.86 558.814 803.407 555.462C806.954 552.11 809.201 547.383 809.683 542.256C810.166 537.129 808.848 531.994 806.002 527.908C803.155 523.822 798.996 521.098 794.384 520.297C789.771 519.497 785.056 520.68 781.211 523.605C777.366 526.529 774.684 530.97 773.718 536.013C773.454 537.39 773.322 538.793 773.323 540.2V540.2Z"/><path fill="#3F3D56" d="M761.607 586.834L757.263 588.331C757.366 588.814 757.338 589.32 757.18 589.784C757.023 590.249 756.745 590.652 756.38 590.942C756.008 591.236 755.71 591.63 755.515 592.087C755.321 592.545 755.236 593.049 755.268 593.553C755.268 593.553 754.787 595.494 753.691 595.929C752.595 596.364 751.854 599.28 751.854 599.28L748.188 603.937C748.188 603.937 746.832 605.172 747.076 605.79C747.321 606.408 745.641 606.582 745.641 606.582L746.517 622.249L754.086 623.833L758.816 623.302L762.64 621.718L765.983 619.525L767.505 615.173L774.199 603.91L761.607 586.834Z"/><path fill="#EE8E9E" d="M746.698 607.862C746.698 607.862 736.976 592.378 729.723 600.734C722.469 609.089 732.672 622.641 735.06 622.206C737.449 621.77 748.85 621.039 748.85 621.039L746.698 607.862Z"/><path fill="#3F3D56" d="M769.686 601.246L726.519 576.924C725.921 576.587 725.19 576.849 724.885 577.508L708.024 613.974C707.72 614.634 707.957 615.441 708.554 615.778L751.722 640.1C752.319 640.437 753.05 640.175 753.355 639.516L770.216 603.049C770.521 602.39 770.284 601.582 769.686 601.246Z"/><path fill="#D551F1" d="M765.568 603.346L727.463 581.876L712.807 613.575L750.911 635.044L765.568 603.346Z"/><path fill="#E6E8EC" d="M718.708 597.635C719.096 597.635 719.41 597.288 719.41 596.861C719.41 596.433 719.096 596.086 718.708 596.086C718.321 596.086 718.007 596.433 718.007 596.861C718.007 597.288 718.321 597.635 718.708 597.635Z"/><path fill="#E6E8EC" d="M759.952 621.466C760.592 621.466 761.111 620.893 761.111 620.186C761.111 619.48 760.592 618.907 759.952 618.907C759.311 618.907 758.793 619.48 758.793 620.186C758.793 620.893 759.311 621.466 759.952 621.466Z"/><path fill="#EE8E9E" d="M740.406 611.117C740.327 622.736 762.08 625.191 762.08 625.191L767.599 626.166L770.091 626.601L771.132 615.286C771.132 615.286 769.988 615.103 768.561 614.738C766.456 614.189 763.728 613.258 763.16 611.944C762.238 609.724 740.485 599.506 740.406 611.117Z"/><path fill="#000" d="M773.718 536.013C774.219 536.054 774.691 536.288 775.05 536.675C775.673 537.397 775.705 538.668 776.501 539.112C776.8 539.261 777.133 539.304 777.455 539.234C779.576 538.903 780.798 536.266 782.832 535.535C784.024 535.206 785.281 535.325 786.404 535.874C786.86 536.041 787.266 536.342 787.579 536.745C788.264 537.719 787.784 539.155 788.099 540.33C788.54 541.967 790.307 542.611 791.836 542.828C793.366 543.046 795.092 543.159 796.109 544.43C796.452 544.905 796.699 545.455 796.835 546.043C796.97 546.631 796.992 547.244 796.898 547.842C796.807 548.253 796.807 548.683 796.898 549.095C797.324 550.418 799.389 550.218 799.933 549.182C800.328 548.425 800.201 547.789 801.132 547.581C801.802 547.522 802.474 547.65 803.087 547.955C804.708 548.578 806.417 548.873 808.133 548.825C809.225 546.254 809.813 543.457 809.858 540.618C809.902 537.779 809.402 534.961 808.391 532.35C807.38 529.739 805.88 527.393 803.99 525.467C802.101 523.54 799.863 522.077 797.425 521.172C794.987 520.267 792.403 519.941 789.842 520.216C787.282 520.49 784.803 521.359 782.568 522.766C780.334 524.172 778.393 526.084 776.875 528.376C775.356 530.668 774.294 533.288 773.757 536.066L773.718 536.013Z" opacity=".1"/><path fill="#3F3D56" d="M796.859 548.538C796.768 548.123 796.768 547.691 796.859 547.276C796.952 546.679 796.93 546.068 796.794 545.481C796.658 544.895 796.412 544.347 796.07 543.873C795.053 542.593 793.326 542.471 791.797 542.263C790.267 542.054 788.501 541.392 788.06 539.765C787.744 538.59 788.225 537.154 787.539 536.187C787.231 535.779 786.823 535.477 786.364 535.317C785.244 534.757 783.983 534.637 782.793 534.978C780.759 535.7 779.536 538.346 777.416 538.677C777.094 538.737 776.762 538.695 776.462 538.555C775.673 538.111 775.626 536.814 775.011 536.109C774.049 534.978 772.212 535.709 771.021 534.873C770.31 534.213 769.851 533.28 769.736 532.262C769.211 530.375 769.09 528.379 769.381 526.431C770.075 523.158 772.724 520.913 774.42 518.119C775.996 515.508 776.879 512.218 779.253 510.494C781.626 508.771 784.661 509.163 787.334 510.033C788.566 510.513 789.832 510.88 791.119 511.13C793.279 511.426 795.439 510.773 797.608 510.694C800.673 510.586 803.685 511.596 806.178 513.567C806.737 513.975 807.213 514.509 807.573 515.133C807.933 516.015 808.144 516.962 808.196 517.927C808.45 519.748 809.021 521.498 809.876 523.08C810.546 524.316 811.39 525.438 811.997 526.718C812.668 527.974 812.871 529.469 812.564 530.887C812.359 531.609 811.957 532.262 811.776 533.002C811.421 534.743 812.446 536.362 813.148 537.946C813.82 539.394 814.141 541.011 814.078 542.637C814.039 543.448 813.848 544.242 813.519 544.968C813.189 545.694 812.727 546.338 812.162 546.858C810.979 547.766 809.566 548.238 808.125 548.207C806.375 548.268 804.63 547.973 802.977 547.337C802.365 547.037 801.697 546.909 801.029 546.963C800.099 547.18 800.241 547.833 799.823 548.564C799.35 549.669 797.284 549.852 796.859 548.538Z"/><path fill="#000" d="M787.027 662.147L797.276 653.26L813.463 635.67C813.463 635.67 811.287 635.548 808.117 635.4C807.494 636.027 807.094 636.879 806.99 637.802C806.911 639.952 802.622 637.95 800.391 639.186C798.159 640.422 787.24 655.845 785.324 655.723C783.408 655.601 781.894 654.653 781.098 656.15L781.042 656.245C780.724 656.647 780.299 656.928 779.828 657.046L787.027 662.147Z" opacity=".1"/><path fill="#65617D" d="M766.306 661.537L771.455 679.737L772.243 682.6L774.703 681.852L780.128 680.207L804.286 672.887C807.313 672.718 810.272 671.827 812.958 670.276C817.517 667.459 822.731 666.202 827.939 666.664C831.093 666.994 834.68 665.471 837.629 659.466C837.629 659.466 844.323 637.646 827.426 631.397C810.53 625.147 809.718 634.721 809.718 634.721L809.489 634.878C808.835 635.339 806.998 636.793 806.927 638.551C806.848 640.701 802.559 638.699 800.328 639.935C798.096 641.171 787.176 656.594 785.26 656.472C783.345 656.35 781.831 655.401 781.034 656.898L780.979 656.994C780.388 657.864 778.614 658.099 777.439 658.143C776.8 658.143 776.335 658.143 776.335 658.143L776.185 658.195L774.956 658.595L766.306 661.537Z"/><path fill="#000" d="M767.639 626.166L770.13 626.601L771.171 615.286C771.171 615.286 770.028 615.103 768.601 614.738C768.979 616.287 768.128 622.406 767.639 626.166Z" opacity=".1"/><path fill="#000" d="M832.819 573.169C832.819 573.169 840.231 570.793 838.394 594.058C836.557 617.323 822.853 631.98 822.853 631.98C822.853 631.98 807.085 639.63 799.989 638.403C792.893 637.176 787.713 636.906 787.713 636.906C785.48 635.658 783.037 634.937 780.538 634.791C776.596 634.617 768.183 631.893 768.025 631.005C767.868 630.117 770.099 617.192 769.137 616.209C769.137 616.209 780.301 616.713 781.413 617.61C782.525 618.506 784.125 617.862 785.355 617.61C786.585 617.358 790.212 613.833 797.466 616.914C797.466 616.914 799.941 617.175 800.895 616.478C801.676 616.074 802.565 616.009 803.387 616.296C804.003 616.065 804.587 615.74 805.121 615.33C805.358 614.981 807.274 615.33 807.274 615.33C807.387 615.391 807.512 615.423 807.638 615.424C807.764 615.425 807.889 615.395 808.003 615.336C808.118 615.276 808.218 615.19 808.298 615.082C808.378 614.974 808.435 614.847 808.464 614.712C808.718 613.992 809.098 613.335 809.584 612.779C809.584 612.779 811.736 599.402 815.797 594.389C816.124 594.078 816.376 593.682 816.529 593.237C816.682 592.791 816.731 592.31 816.672 591.839C816.317 590.376 823.248 570.314 832.819 573.169Z" opacity=".1"/><path fill="#3F3D56" d="M832.622 571.35C832.622 571.35 840.034 568.974 838.196 592.239C836.359 615.504 822.656 630.161 822.656 630.161C822.656 630.161 806.887 637.811 799.791 636.584C792.695 635.357 787.515 635.087 787.515 635.087C785.284 633.837 782.84 633.117 780.341 632.972C776.398 632.798 767.986 630.074 767.828 629.186C767.67 628.298 769.902 615.373 768.948 614.39C768.948 614.39 780.104 614.894 781.216 615.791C782.328 616.687 783.928 616.043 785.158 615.791C786.388 615.538 790.015 612.014 797.268 615.095C797.268 615.095 799.744 615.356 800.698 614.651C801.48 614.252 802.369 614.19 803.19 614.477C803.806 614.246 804.39 613.921 804.924 613.511C805.161 613.162 807.077 613.511 807.077 613.511C807.19 613.572 807.314 613.604 807.441 613.605C807.567 613.606 807.692 613.576 807.806 613.517C807.92 613.457 808.021 613.371 808.101 613.263C808.181 613.154 808.238 613.028 808.267 612.893C808.52 612.173 808.901 611.516 809.387 610.96C809.387 610.96 811.539 597.583 815.6 592.57C815.928 592.259 816.18 591.863 816.334 591.418C816.488 590.973 816.54 590.492 816.483 590.019C816.12 588.592 823.058 568.53 832.622 571.35Z"/><path fill="#000" d="M775.05 658.639L785.584 672.704L785.647 672.626C785.726 672.356 786.759 669.362 786.522 669.188C786.285 669.014 784.448 664.61 780.782 662.764C778.92 661.763 777.357 660.192 776.28 658.239L775.05 658.639Z" opacity=".1"/><path fill="#000" d="M775.2 682.974L776.351 683.705L781.673 678.962C784.299 676.612 786.908 674.245 786.948 674.114C787.027 673.853 788.067 670.859 787.823 670.685C787.705 670.589 787.153 669.379 786.144 667.961C779.048 665.759 783.557 671.224 784.157 671.442C784.157 671.442 775.484 669.24 774.995 679.684C774.93 680.786 774.999 681.893 775.2 682.974V682.974Z" opacity=".1"/><path fill="#3F3D56" d="M783.999 687.404L785.513 688.371L800.895 688.806C802.622 689.965 804.447 690.935 806.343 691.704C806.601 691.79 806.865 691.851 807.132 691.887C808.558 692.015 809.991 692.044 811.421 691.974C812.596 691.974 813.51 691.887 813.51 691.887C813.51 691.887 812.777 670.476 812.233 668.222C811.965 667.142 810.656 667.351 809.41 667.917C808.454 668.346 807.531 668.861 806.651 669.458C806.651 669.458 800.115 670.154 799.082 670.781C798.049 671.407 795.092 670.424 793.263 670.781C791.434 671.137 788.162 668.396 788.162 668.396C779.237 665.141 784.22 671.216 784.89 671.477C784.89 671.477 776.217 669.275 775.728 679.719C775.239 690.164 783.999 687.404 783.999 687.404Z"/><path fill="#565387" d="M806.233 679.127C806.406 683.566 809.537 689.067 811.405 691.974C812.58 691.974 813.495 691.887 813.495 691.887C813.495 691.887 812.761 670.476 812.217 668.222C811.949 667.142 810.64 667.351 809.395 667.917C807.849 671.111 806.146 675.559 806.233 679.127Z"/><path fill="#000" d="M806.233 679.127C806.406 683.566 809.537 689.067 811.405 691.974C812.58 691.974 813.495 691.887 813.495 691.887C813.495 691.887 812.761 670.476 812.217 668.222C811.949 667.142 810.64 667.351 809.395 667.917C807.849 671.111 806.146 675.559 806.233 679.127Z" opacity=".1"/><path fill="#000" d="M803.608 679.719C804.664 684.001 804.656 688.797 806.343 691.704C806.601 691.79 806.865 691.851 807.132 691.887C808.559 692.015 809.991 692.044 811.421 691.974C812.596 691.974 813.51 691.887 813.51 691.887C813.51 691.887 812.777 670.476 812.233 668.222C811.965 667.142 810.656 667.351 809.41 667.917C808.454 668.346 807.531 668.861 806.651 669.458C806.651 669.458 802.251 674.236 803.608 679.719Z" opacity=".05"/><path fill="#000" d="M750.538 636.305C750.538 636.305 758.178 639.047 764.651 648.778L750.538 636.305Z" opacity=".1"/><g opacity=".1"><path fill="#000" d="M812.627 530.73L812.58 530.922C812.506 531.172 812.416 531.416 812.312 531.653C812.394 531.336 812.499 531.028 812.627 530.73V530.73Z" opacity=".1"/><path fill="#000" d="M769.397 526.466C769.533 525.862 769.732 525.278 769.988 524.725C769.988 524.873 769.909 525.021 769.878 525.177C769.578 527.128 769.7 529.129 770.233 531.018C770.345 532.037 770.804 532.97 771.518 533.629C772.701 534.499 774.538 533.742 775.507 534.873C776.122 535.587 776.154 536.866 776.958 537.31C777.258 537.455 777.59 537.497 777.912 537.432C780.025 537.101 781.255 534.455 783.289 533.733C784.477 533.393 785.735 533.512 786.853 534.073C787.31 534.241 787.719 534.542 788.036 534.943C788.714 535.918 788.241 537.345 788.556 538.529C788.99 540.156 790.756 540.809 792.285 541.018C793.815 541.227 795.542 541.357 796.567 542.628C796.905 543.104 797.15 543.652 797.286 544.238C797.422 544.824 797.445 545.435 797.355 546.031C797.262 546.446 797.262 546.879 797.355 547.293C797.773 548.616 799.839 548.416 800.383 547.372C800.777 546.614 800.659 545.988 801.589 545.779C802.257 545.716 802.928 545.844 803.537 546.153C805.191 546.784 806.935 547.079 808.685 547.024C810.129 547.048 811.543 546.573 812.73 545.666C813.246 545.216 813.668 544.649 813.968 544.003C813.702 545.177 813.099 546.225 812.249 546.989C811.065 547.896 809.653 548.368 808.212 548.338C806.462 548.398 804.717 548.103 803.064 547.467C802.45 547.167 801.778 547.039 801.108 547.093C800.178 547.311 800.32 547.964 799.902 548.695C799.366 549.739 797.3 549.931 796.874 548.616C796.788 548.201 796.788 547.77 796.874 547.354C796.97 546.758 796.949 546.146 796.813 545.559C796.677 544.972 796.429 544.424 796.086 543.951C795.069 542.672 793.342 542.55 791.812 542.341C790.283 542.132 788.517 541.471 788.075 539.843C787.76 538.668 788.241 537.232 787.555 536.266C787.245 535.859 786.838 535.558 786.38 535.395C785.26 534.835 783.999 534.716 782.808 535.056C780.774 535.778 779.544 538.424 777.431 538.755C777.109 538.816 776.778 538.774 776.477 538.633C775.689 538.189 775.641 536.892 775.026 536.187C774.057 535.056 772.227 535.787 771.037 534.952C770.323 534.293 769.864 533.36 769.752 532.34C769.216 530.44 769.095 528.427 769.397 526.466V526.466Z" opacity=".1"/></g><path fill="#000" d="M813.865 596.887C812.399 599.062 810.711 601.073 809.442 603.38C808.043 605.631 807.361 608.331 807.502 611.056C808.843 609.542 809.458 607.453 810.301 605.555C811.728 602.335 813.857 599.611 815.663 596.652C816.002 596.086 818.202 592.822 817.09 592.674C816.167 592.543 814.362 596.147 813.865 596.887Z" opacity=".1"/><path fill="#fff" d="M312.007 313.557H246.779C246.483 313.537 246.186 313.585 245.907 313.696C245.628 313.808 245.372 313.982 245.156 314.206C244.94 314.431 244.768 314.702 244.65 315.002C244.533 315.303 244.472 315.627 244.472 315.955C244.472 316.283 244.533 316.607 244.65 316.908C244.768 317.208 244.94 317.479 245.156 317.704C245.372 317.929 245.628 318.102 245.907 318.214C246.186 318.325 246.483 318.373 246.779 318.353H312.007C312.303 318.373 312.6 318.325 312.879 318.214C313.158 318.102 313.413 317.929 313.629 317.704C313.845 317.479 314.018 317.208 314.135 316.908C314.253 316.607 314.314 316.283 314.314 315.955C314.314 315.627 314.253 315.303 314.135 315.002C314.018 314.702 313.845 314.431 313.629 314.206C313.413 313.982 313.158 313.808 312.879 313.696C312.6 313.585 312.303 313.537 312.007 313.557V313.557ZM312.007 321.782H246.779C246.202 321.782 245.648 322.035 245.24 322.486C244.832 322.936 244.603 323.547 244.603 324.184C244.603 324.821 244.832 325.432 245.24 325.883C245.648 326.333 246.202 326.587 246.779 326.587H312.007C312.584 326.587 313.137 326.333 313.545 325.883C313.953 325.432 314.183 324.821 314.183 324.184C314.183 323.547 313.953 322.936 313.545 322.486C313.137 322.035 312.584 321.782 312.007 321.782V321.782ZM308.735 266.27H250.059C248.614 266.273 247.228 266.907 246.206 268.034C245.183 269.161 244.607 270.689 244.603 272.285V302.747C244.607 304.342 245.183 305.871 246.206 306.998C247.228 308.125 248.614 308.759 250.059 308.761H308.735C310.178 308.757 311.562 308.122 312.582 306.995C313.603 305.868 314.179 304.341 314.183 302.747V272.285C314.179 270.691 313.603 269.164 312.582 268.037C311.562 266.91 310.178 266.275 308.735 266.27V266.27ZM257.336 303.304H251.746C251.169 303.304 250.615 303.051 250.207 302.601C249.799 302.15 249.57 301.539 249.57 300.902C249.57 300.265 249.799 299.654 250.207 299.204C250.615 298.753 251.169 298.5 251.746 298.5H257.336C257.913 298.5 258.467 298.753 258.875 299.204C259.283 299.654 259.512 300.265 259.512 300.902C259.512 301.539 259.283 302.15 258.875 302.601C258.467 303.051 257.913 303.304 257.336 303.304V303.304ZM257.336 276.558H251.746C251.169 276.558 250.615 276.305 250.207 275.854C249.799 275.404 249.57 274.793 249.57 274.156C249.57 273.519 249.799 272.908 250.207 272.457C250.615 272.007 251.169 271.754 251.746 271.754H257.336C257.913 271.754 258.467 272.007 258.875 272.457C259.283 272.908 259.512 273.519 259.512 274.156C259.512 274.793 259.283 275.404 258.875 275.854C258.467 276.305 257.913 276.558 257.336 276.558ZM279.412 301.242C276.955 301.242 274.552 300.437 272.509 298.93C270.466 297.423 268.873 295.28 267.932 292.774C266.992 290.267 266.746 287.509 267.225 284.849C267.705 282.188 268.888 279.744 270.626 277.825C272.364 275.907 274.578 274.601 276.988 274.071C279.399 273.542 281.897 273.814 284.168 274.852C286.438 275.89 288.379 277.648 289.744 279.904C291.11 282.16 291.838 284.812 291.838 287.525C291.834 291.164 290.521 294.653 288.189 297.225C285.856 299.797 282.694 301.242 279.397 301.242H279.412ZM307.063 303.304H301.473C300.896 303.304 300.342 303.051 299.934 302.601C299.526 302.15 299.297 301.539 299.297 300.902C299.297 300.265 299.526 299.654 299.934 299.204C300.342 298.753 300.896 298.5 301.473 298.5H307.063C307.64 298.5 308.194 298.753 308.602 299.204C309.01 299.654 309.239 300.265 309.239 300.902C309.239 301.539 309.01 302.15 308.602 302.601C308.194 303.051 307.64 303.304 307.063 303.304V303.304ZM307.063 276.558H301.473C300.896 276.558 300.342 276.305 299.934 275.854C299.526 275.404 299.297 274.793 299.297 274.156C299.297 273.519 299.526 272.908 299.934 272.457C300.342 272.007 300.896 271.754 301.473 271.754H307.063C307.64 271.754 308.194 272.007 308.602 272.457C309.01 272.908 309.239 273.519 309.239 274.156C309.239 274.793 309.01 275.404 308.602 275.854C308.194 276.305 307.64 276.558 307.063 276.558V276.558Z"/><path fill="#fff" d="M279.397 296.942C283.943 296.942 287.628 292.874 287.628 287.855C287.628 282.837 283.943 278.769 279.397 278.769C274.851 278.769 271.165 282.837 271.165 287.855C271.165 292.874 274.851 296.942 279.397 296.942Z"/><path fill="#D551F1" d="M700.298 205.65H404.089V387.19H700.298V205.65Z" opacity=".2"/><path fill="#D551F1" d="M700.298 427.801H404.089V609.342H700.298V427.801Z" opacity=".2"/><path fill="#fff" d="M471.303 332.061H462.339V365.222H471.303V332.061Z"/><path fill="#fff" d="M488.373 291.006H479.408V365.222H488.373V291.006Z"/><path fill="#DFE3EF" d="M505.451 254.016H496.486V365.222H505.451V254.016Z"/><path fill="#fff" d="M522.528 227.626H513.564V365.222H522.528V227.626Z"/><path fill="#D551F1" d="M505.451 227.626H496.486V365.222H505.451V227.626Z"/><path fill="#D551F1" d="M539.598 289.587H530.633V365.222H539.598V289.587Z"/><path fill="#D551F1" d="M556.676 270.039H547.711V365.222H556.676V270.039Z" opacity=".2"/><path fill="#D551F1" d="M573.745 240.351H564.781V365.222H573.745V240.351Z"/><path fill="#D551F1" d="M590.823 309.614H581.858V365.222H590.823V309.614Z" opacity=".2"/><path fill="#D551F1" d="M607.901 283.939H598.936V365.222H607.901V283.939Z"/><path fill="#D551F1" d="M624.97 254.016H616.006V365.222H624.97V254.016Z" opacity=".2"/><path fill="#D551F1" d="M642.048 254.016H633.083V365.222H642.048V254.016Z"/><path fill="#fff" d="M314.159 496.621C314.155 495.168 313.63 493.776 312.7 492.749C311.769 491.721 310.508 491.142 309.192 491.138H249.578C248.261 491.142 246.999 491.721 246.067 492.748C245.135 493.775 244.609 495.167 244.603 496.621V504.854H314.159V496.621ZM244.579 540.513C244.583 541.968 245.109 543.363 246.041 544.392C246.973 545.42 248.236 546.001 249.554 546.005H309.192C310.509 546.001 311.772 545.42 312.702 544.391C313.633 543.362 314.157 541.967 314.159 540.513V513.114H244.603L244.579 540.513ZM266.656 532.288H292.13C292.426 532.269 292.723 532.316 293.002 532.427C293.281 532.539 293.537 532.713 293.753 532.937C293.969 533.162 294.141 533.433 294.259 533.734C294.376 534.034 294.437 534.358 294.437 534.686C294.437 535.014 294.376 535.338 294.259 535.639C294.141 535.939 293.969 536.21 293.753 536.435C293.537 536.66 293.281 536.833 293.002 536.945C292.723 537.056 292.426 537.104 292.13 537.084H266.656C266.102 537.047 265.582 536.778 265.202 536.333C264.822 535.887 264.61 535.298 264.61 534.686C264.61 534.074 264.822 533.485 265.202 533.039C265.582 532.594 266.102 532.325 266.656 532.288V532.288ZM255.475 532.288H257.336C257.632 532.269 257.929 532.316 258.208 532.427C258.487 532.539 258.743 532.713 258.959 532.937C259.175 533.162 259.347 533.433 259.465 533.734C259.582 534.034 259.643 534.358 259.643 534.686C259.643 535.014 259.582 535.338 259.465 535.639C259.347 535.939 259.175 536.21 258.959 536.435C258.743 536.66 258.487 536.833 258.208 536.945C257.929 537.056 257.632 537.104 257.336 537.084H255.475C255.179 537.104 254.882 537.056 254.603 536.945C254.324 536.833 254.069 536.66 253.853 536.435C253.637 536.21 253.464 535.939 253.347 535.639C253.229 535.338 253.168 535.014 253.168 534.686C253.168 534.358 253.229 534.034 253.347 533.734C253.464 533.433 253.637 533.162 253.853 532.937C254.069 532.713 254.324 532.539 254.603 532.427C254.882 532.316 255.179 532.269 255.475 532.288V532.288Z"/><path fill="#fff" d="M471.303 554.204H462.339V587.365H471.303V554.204Z"/><path fill="#fff" d="M488.373 513.149H479.408V587.365H488.373V513.149Z"/><path fill="#DFE3EF" d="M505.451 476.159H496.486V587.365H505.451V476.159Z"/><path fill="#fff" d="M522.528 449.769H513.564V587.365H522.528V449.769Z"/><path fill="#D551F1" d="M505.451 449.769H496.486V587.365H505.451V449.769Z"/><path fill="#D551F1" d="M539.598 511.73H530.633V587.365H539.598V511.73Z"/><path fill="#fff" d="M556.676 492.182H547.711V587.365H556.676V492.182Z"/><path fill="#fff" d="M573.745 462.494H564.781V587.365H573.745V462.494Z"/><path fill="#D551F1" d="M590.823 531.757H581.858V587.365H590.823V531.757Z" opacity=".2"/><path fill="#D551F1" d="M607.901 506.082H598.936V587.365H607.901V506.082Z" opacity=".2"/><path fill="#D551F1" d="M624.97 476.159H616.006V587.365H624.97V476.159Z" opacity=".2"/><path fill="#D551F1" d="M642.048 476.159H633.083V587.365H642.048V476.159Z" opacity=".2"/></g><defs><filter id="filter0_d" width="264.669" height="477.571" x="0" y="249.992" color-interpolation-filters="sRGB" filterUnits="userSpaceOnUse"><feFlood flood-opacity="0" result="BackgroundImageFix"/><feColorMatrix in="SourceAlpha" type="matrix" values="0 0 0 0 0 0 0 0 0 0 0 0 0 0 0 0 0 0 127 0"/><feOffset dx="5" dy="40"/><feGaussianBlur stdDeviation="4"/><feColorMatrix type="matrix" values="0 0 0 0 0 0 0 0 0 0 0 0 0 0 0 0 0 0 0.25 0"/><feBlend in2="BackgroundImageFix" mode="normal" result="effect1_dropShadow"/><feBlend in="SourceGraphic" in2="effect1_dropShadow" mode="normal" result="shape"/></filter><filter id="filter1_d" width="267.481" height="279.977" x="706.519" y="-30.009" color-interpolation-filters="sRGB" filterUnits="userSpaceOnUse"><feFlood flood-opacity="0" result="BackgroundImageFix"/><feColorMatrix in="SourceAlpha" type="matrix" values="0 0 0 0 0 0 0 0 0 0 0 0 0 0 0 0 0 0 127 0"/><feOffset dx="8" dy="-10"/><feGaussianBlur stdDeviation="10"/><feColorMatrix type="matrix" values="0 0 0 0 0 0 0 0 0 0 0 0 0 0 0 0 0 0 0.25 0"/><feBlend in2="BackgroundImageFix" mode="normal" result="effect1_dropShadow"/><feBlend in="SourceGraphic" in2="effect1_dropShadow" mode="normal" result="shape"/></filter><filter id="filter2_d" width="307.354" height="296.871" x="52" y="-23" color-interpolation-filters="sRGB" filterUnits="userSpaceOnUse"><feFlood flood-opacity="0" result="BackgroundImageFix"/><feColorMatrix in="SourceAlpha" type="matrix" values="0 0 0 0 0 0 0 0 0 0 0 0 0 0 0 0 0 0 127 0"/><feOffset dx="15" dy="12"/><feGaussianBlur stdDeviation="9"/><feColorMatrix type="matrix" values="0 0 0 0 0 0 0 0 0 0 0 0 0 0 0 0 0 0 0.25 0"/><feBlend in2="BackgroundImageFix" mode="normal" result="effect1_dropShadow"/><feBlend in="SourceGraphic" in2="effect1_dropShadow" mode="normal" result="shape"/></filter><filter id="filter3_d" width="331.354" height="320.871" x="35" y="-37" color-interpolation-filters="sRGB" filterUnits="userSpaceOnUse"><feFlood flood-opacity="0" result="BackgroundImageFix"/><feColorMatrix in="SourceAlpha" type="matrix" values="0 0 0 0 0 0 0 0 0 0 0 0 0 0 0 0 0 0 127 0"/><feOffset dx="10" dy="10"/><feGaussianBlur stdDeviation="15"/><feColorMatrix type="matrix" values="0 0 0 0 0 0 0 0 0 0 0 0 0 0 0 0 0 0 0.25 0"/><feBlend in2="BackgroundImageFix" mode="normal" result="effect1_dropShadow"/><feBlend in="SourceGraphic" in2="effect1_dropShadow" mode="normal" result="shape"/></filter><filter id="filter4_d" width="192.705" height="419.169" x="80" y="248" color-interpolation-filters="sRGB" filterUnits="userSpaceOnUse"><feFlood flood-opacity="0" result="BackgroundImageFix"/><feColorMatrix in="SourceAlpha" type="matrix" values="0 0 0 0 0 0 0 0 0 0 0 0 0 0 0 0 0 0 127 0"/><feOffset dx="2" dy="-8"/><feGaussianBlur stdDeviation="4"/><feColorMatrix type="matrix" values="0 0 0 0 0 0 0 0 0 0 0 0 0 0 0 0 0 0 0.25 0"/><feBlend in2="BackgroundImageFix" mode="normal" result="effect1_dropShadow"/><feBlend in="SourceGraphic" in2="effect1_dropShadow" mode="normal" result="shape"/></filter><filter id="filter5_d" width="724.162" height="602.486" x="160.784" y="84.321" color-interpolation-filters="sRGB" filterUnits="userSpaceOnUse"><feFlood flood-opacity="0" result="BackgroundImageFix"/><feColorMatrix in="SourceAlpha" type="matrix" values="0 0 0 0 0 0 0 0 0 0 0 0 0 0 0 0 0 0 127 0"/><feOffset dx="2" dy="8"/><feGaussianBlur stdDeviation="4"/><feColorMatrix type="matrix" values="0 0 0 0 0 0 0 0 0 0 0 0 0 0 0 0 0 0 0.25 0"/><feBlend in2="BackgroundImageFix" mode="normal" result="effect1_dropShadow"/><feBlend in="SourceGraphic" in2="effect1_dropShadow" mode="normal" result="shape"/></filter><linearGradient id="paint0_linear" x1="789.242" x2="789.242" y1="691.347" y2="507.474" gradientUnits="userSpaceOnUse"><stop stop-color="gray" stop-opacity=".25"/><stop offset=".54" stop-color="gray" stop-opacity=".12"/><stop offset="1" stop-color="gray" stop-opacity=".1"/></linearGradient><clipPath id="clip0"><rect width="860" height="692" fill="#fff" transform="translate(86)"/></clipPath></defs></svg>