<svg xmlns="http://www.w3.org/2000/svg" width="120" height="100" fill="none" viewBox="0 0 120 100"><path fill="#E44D26" d="M10.9176 90.0104L0 0H120L109.082 89.9758L59.9059 100L10.9176 90.0104Z"/><path fill="#F16529" d="M60 92.3609L99.7176 84.2724L109.082 7.36259H60V92.3609Z"/><path fill="#EBEBEB" d="M60 40.7535H40.0941L38.7294 29.4504H60V18.4238H59.9529H22.3059L22.6823 21.3619L26.3529 51.7802H60V40.7535Z"/><path fill="#EBEBEB" d="M60 69.4089L59.9529 69.4435L43.2 66.0906L42.1176 57.3108H33.9765H27.0588L29.1294 74.6284L59.9529 80.9195L60 80.8849V69.4089Z"/><path fill="#fff" d="M59.9529 40.7535V51.7802H78.4471L76.7059 66.0906L59.9529 69.4089V80.9195L90.7294 74.6284L90.9647 72.7618L94.4941 43.7262L94.8706 40.7535H90.8235H59.9529Z"/><path fill="#fff" d="M59.9529 18.4238V25.2679V29.4158V29.4504H96.1882H96.2353L96.5647 26.9616L97.2235 21.3619L97.6 18.4238H59.9529Z"/></svg>