<svg xmlns="http://www.w3.org/2000/svg" width="121" height="100" fill="none" viewBox="0 0 121 100"><path fill="#0074BD" d="M37.4205 66.3848C37.4205 66.3848 31.4037 68.2787 41.7006 68.9212C54.1685 69.699 60.5576 69.5976 74.2661 68.1772C74.2661 68.1772 77.8638 69.4285 82.9502 70.4768C52.1215 77.6801 13.229 70.071 37.4205 66.3848Z"/><path fill="#0074BD" d="M33.6367 56.9834C33.6367 56.9834 26.8755 59.7227 37.1724 60.2976C50.5088 61.0416 60.9918 61.1092 79.2285 59.1816C79.2285 59.1816 81.7717 60.5681 85.6796 61.346C48.5238 67.2641 7.02604 61.7856 33.6367 56.9834Z"/><path fill="#EA2D2E" d="M65.3959 41.0213C72.9635 45.7896 63.4109 50.0845 63.4109 50.0845C63.4109 50.0845 82.7021 44.6737 73.8319 37.8762C65.582 31.5522 59.1929 28.4072 93.5573 17.5516C93.5573 17.5178 39.6536 24.8563 65.3959 41.0213Z"/><path fill="#0074BD" d="M106.149 73.3175C106.149 73.3175 110.615 75.3128 101.249 76.8684C83.4465 79.8106 27.1857 80.6899 11.6162 76.9699C6.03358 75.651 16.5166 73.791 19.8662 73.3852C23.3398 72.9794 25.2628 73.047 25.2628 73.047C18.9978 70.6459 -15.1185 77.7477 7.9565 79.8106C70.7304 85.3906 122.463 77.3419 106.149 73.3175Z"/><path fill="#0074BD" d="M40.336 47.2438C40.336 47.2438 11.7403 50.9638 30.2251 52.2827C38.0409 52.8576 53.5483 52.7224 68.0632 52.046C79.9108 51.5049 91.8205 50.3551 91.8205 50.3551C91.8205 50.3551 87.6645 51.3358 84.6251 52.4518C55.5952 56.6114 -0.54152 54.6838 15.5862 50.4227C29.2327 46.838 40.336 47.2438 40.336 47.2438Z"/><path fill="#0074BD" d="M91.6344 62.8678C121.16 54.5147 107.514 46.466 97.9614 47.5482C95.6043 47.8187 94.6118 48.0555 94.6118 48.0555C94.6118 48.0555 95.4802 47.3115 97.155 47.0071C116.012 43.3886 130.527 57.6598 91.0761 63.3074C91.0761 63.3074 91.5103 63.0707 91.6344 62.8678Z"/><path fill="#EA2D2E" d="M73.8319 0C73.8319 0 90.2077 8.92797 58.3245 22.6243C32.7683 33.6151 52.4937 39.9053 58.3245 47.0747C43.3754 39.7362 32.4582 33.277 39.7777 27.2574C50.5708 18.4647 80.407 14.1698 73.8319 0Z"/><path fill="#0074BD" d="M43.1893 85.5597C71.5368 86.5404 115.082 85.0186 116.136 77.6801C116.136 77.6801 114.151 80.4532 92.6889 82.6513C68.4974 85.1201 38.6611 84.8495 20.9207 83.2601C20.9827 83.2601 24.5804 84.9171 43.1893 85.5597Z"/><path fill="#EA2D2E" d="M114.833 98.6811H113.965V98.4106H116.26V98.6811H115.392V100H114.771L114.833 98.6811ZM119.486 98.7487L118.617 100H118.245L117.377 98.7487V100H116.818V98.4106H117.625L118.431 99.5265L119.238 98.4106H120.044V100H119.486V98.7487Z"/></svg>