<svg xmlns="http://www.w3.org/2000/svg" width="121" height="101" fill="none" viewBox="0 0 121 101"><path fill="#F7DF1E" d="M120.5 0.5H0.5V100.5H120.5V0.5Z"/><path fill="#000" d="M32.0616 84.0616L41.2342 79.4315C43.0096 82.0616 44.6205 84.2534 48.4671 84.2534C52.1822 84.2534 54.5164 83.0479 54.5164 78.3356V46.4178H65.7932V78.5C65.7932 88.226 58.9548 92.6644 48.9603 92.6644C39.9521 92.6644 34.7247 88.774 32.0616 84.0616Z"/><path fill="#000" d="M71.9411 83.0479L81.1137 78.6096C83.5466 81.8973 86.6699 84.3082 92.226 84.3082C96.8945 84.3082 99.8863 82.363 99.8863 79.6781C99.8863 76.4452 96.8288 75.3219 91.6671 73.4315L88.8397 72.4178C80.7192 69.5411 75.2945 65.8973 75.2945 58.2534C75.2945 51.2123 81.7384 45.8425 91.7986 45.8425C98.9658 45.8425 104.127 47.9247 107.842 53.3493L99.0644 58.0342C97.1247 55.1575 95.0534 54.0068 91.8315 54.0068C88.5438 54.0068 86.4397 55.7603 86.4397 58.0342C86.4397 60.8562 88.5438 62.0068 93.3767 63.7329L96.2041 64.7466C105.804 68.1712 111.196 71.6507 111.196 79.5137C111.196 87.9794 103.207 92.6096 92.5219 92.6096C82.0014 92.6644 75.2288 88.5 71.9411 83.0479Z"/></svg>