<svg xmlns="http://www.w3.org/2000/svg" width="120" height="100" fill="none" viewBox="0 0 120 100"><path fill="#21609B" d="M117.382 74.2892L116.821 75.3863C107.658 90.2755 91.3889 99.5224 68.2007 99.9926C57.3547 100.149 47.0696 97.7984 40.3376 95.2907C25.7515 89.8053 13.5965 79.6179 6.86444 68.8037C-2.67261 53.2876 -4.35561 31.6591 15.4665 15.3593C15.8405 15.3593 13.0355 18.8074 13.4095 18.8074L12.8485 20.3747C-1.5506 57.9894 42.7686 90.2754 85.7788 86.6707C96.0639 85.7303 109.154 81.0285 117.382 74.2892Z"/><path fill="#21609B" d="M91.2019 58.6163C102.048 58.6163 113.268 54.3846 120 48.429C114.203 60.8105 97.1859 68.9604 74.3718 66.296C55.2977 64.1018 37.1586 48.1155 35.2886 31.9725C33.9796 20.2179 38.8416 13.3218 46.8826 4.85852C44.0776 9.24691 43.1426 12.6949 42.7686 14.8891C39.9636 40.2791 67.0788 58.4596 91.2019 58.6163Z"/><path fill="#21609B" d="M119.065 27.114C117.382 30.4053 107.658 36.5177 103.357 37.1446C86.3398 40.1224 75.4938 33.3831 69.8838 25.7034C68.9488 24.6063 67.4527 21.4718 67.2657 20.6881C65.0217 14.419 66.1437 4.85857 72.6888 0C70.6318 4.70185 70.4448 10.0306 71.3798 13.6353C71.9408 15.8295 73.9978 19.4343 75.8678 21.7852C79.4208 26.0169 81.6648 27.114 86.1528 29.3082C88.2098 30.4053 90.2669 31.1889 91.2019 31.3456C95.5029 32.7562 104.479 35.4206 119.065 27.114Z"/></svg>