<svg xmlns="http://www.w3.org/2000/svg" width="120" height="100" fill="none" viewBox="0 0 120 100"><path fill="#949494" d="M7.06848 16.8354V59.0756L14.1699 54.9932V20.9177L7.06848 16.8354Z"/><path fill="#EFEFEF" d="M0 54.9933V4.11607L42.0822 28.6437V37.2807L7.06849 16.8354V59.0756L0 54.9933Z"/><path fill="#949494" d="M85.0192 4.11607V54.9932L56.6794 71.3563L49.5781 66.8016L77.9178 50.4386V16.363L42.0822 37.2807V28.6437L85.0192 4.11607Z"/><path fill="#D6D6D6" d="M77.9178 0L42.5096 20.4791L7.06849 0L0 4.11606L42.0822 28.6437L85.0192 4.11606L77.9178 0Z"/><path fill="#EFEFEF" d="M70.8493 20.4791V46.3563L77.9178 50.4386V16.363L70.8493 20.4791Z"/><path fill="#D6D6D6" d="M35.4082 66.8016L70.8493 46.3563L77.9178 50.4386L49.5781 66.8016L77.4904 83.1646L105.83 66.8016L112.932 70.9177L77.4904 91.363L35.4082 66.8016Z"/><path fill="#EFEFEF" d="M35.4082 66.8016V75.4386L77.4904 100V91.363L35.4082 66.8016Z"/><path fill="#EFEFEF" d="M112.932 70.9177V45.4453L105.83 41.363V66.8016L112.932 70.9177Z"/><path fill="#949494" d="M77.4904 91.363L112.932 70.9177V45.4453L120 41.363V75.4386L77.4904 100V91.363Z"/><path fill="#D6D6D6" d="M120 41.363L112.932 45.4453L105.83 41.363L112.932 37.2807L120 41.363Z"/><path fill="#949494" d="M112.932 37.2807V28.6437L120 24.5614V33.1984L112.932 37.2807Z"/><path fill="#EFEFEF" d="M112.932 28.6437V37.2807L105.83 33.1984V24.5614L112.932 28.6437Z"/><path fill="#D6D6D6" d="M120 24.5614L112.932 28.6437L105.83 24.5614L112.932 20.4791L120 24.5614Z"/></svg>