<svg xmlns="http://www.w3.org/2000/svg" width="120" height="100" fill="none" viewBox="0 0 120 100"><path fill="#539E43" d="M60 100C58.1481 100 56.4074 99.6439 54.7778 98.9864L38.2593 91.7266C35.7778 90.713 37 90.3568 37.7778 90.1651C41.1481 89.3432 41.7407 89.1514 45.2222 87.6721C45.5926 87.4803 46.0741 87.5899 46.4815 87.7543L59.1481 93.3703C59.6296 93.5621 60.2593 93.5621 60.6296 93.3703L110.185 72.1389C110.667 71.9471 110.926 71.591 110.926 71.1253V28.7994C110.926 28.3337 110.667 27.9775 110.185 27.7858L60.6296 6.66393C60.1481 6.47216 59.5185 6.47216 59.1481 6.66393L9.59259 27.7858C9.11111 27.9775 8.85185 28.4159 8.85185 28.7994V71.1527C8.85185 71.5088 9.11111 71.9745 9.59259 72.1663L23.1481 77.9467C30.4815 80.7137 35.0741 77.481 35.0741 74.2757V32.4704C35.0741 31.9225 35.7037 31.3746 36.5556 31.3746H42.8889C43.6296 31.3746 44.3704 31.8403 44.3704 32.4704V74.2757C44.3704 81.5355 39.037 85.7544 29.7037 85.7544C26.8519 85.7544 24.6296 85.7544 18.2963 83.4532L5.22222 77.9467C2 76.577 0 74.0018 0 71.2348V28.909C0 26.142 2 23.5943 5.22222 22.1971L54.7778 0.965687C57.8889 -0.321896 62.1111 -0.321896 65.2222 0.965687L114.778 22.1971C118 23.5669 120 26.142 120 28.909V71.2622C120 74.0292 118 76.577 114.778 77.9741L65.2222 99.2055C63.5926 99.7261 61.7407 100 60 100ZM75.2593 70.8787C53.5185 70.8787 49.037 63.5367 49.037 57.2906C49.037 56.7427 49.6667 56.1948 50.5185 56.1948H57.037C57.7778 56.1948 58.4074 56.5509 58.4074 57.1262C59.4074 62.0026 62.2593 64.386 75.4074 64.386C85.8519 64.386 90.2963 62.6327 90.2963 58.496C90.2963 56.1126 89.037 54.3593 72.7778 53.1813C59.2222 52.1677 50.7778 49.976 50.7778 41.9766C50.7778 34.525 59.2222 30.1144 73.3704 30.1144C89.2593 30.1144 97.0741 34.1689 98.0741 42.9628C98.0741 43.2368 97.963 43.5107 97.7037 43.7847C97.4444 43.9764 97.0741 44.1408 96.7037 44.1408H90.2593C89.6296 44.1408 89 43.7847 88.8889 43.319C87.4074 38.2782 83.5556 36.6071 73.3704 36.6071C61.963 36.6071 60.5926 39.5384 60.5926 41.7574C60.5926 44.4148 62.2222 45.2366 77.5926 46.716C92.8519 48.1953 100.074 50.3048 100.074 58.1946C100 66.2763 91.037 70.8787 75.2593 70.8787Z"/></svg>