<svg xmlns="http://www.w3.org/2000/svg" width="121" height="101" fill="none" viewBox="0 0 121 101"><path fill="#617CBE" d="M60.2729 100.029C93.42 100.029 120.273 77.6443 120.273 50.029C120.273 22.4137 93.42 0.0289917 60.2729 0.0289917C27.1259 0.0289917 0.272949 22.4137 0.272949 50.029C0.272949 77.6443 27.1259 100.029 60.2729 100.029Z"/><path fill="#fff" d="M72.4166 66.1707L75.3927 40.9739C76.0768 35.2933 75.4953 31.0751 73.7165 28.3754C72.0061 25.7883 69.0985 24.5509 64.8226 24.5509H59.6572L61.1282 12.065C61.1966 11.615 61.0939 11.1089 60.9229 10.7152C60.7519 10.3215 60.4782 10.1527 60.1703 10.1527H53.0894C52.6105 10.1527 52.2342 10.7152 52.1316 11.4463L48.9845 38.1617C48.7108 35.1808 47.9925 32.5937 46.8636 30.4564C44.777 26.5194 41.493 24.5509 37.0461 24.5509H23.2604C22.7815 24.5509 22.4052 25.1134 22.3026 25.8445L15.9058 79.9503C15.8374 80.4002 15.94 80.9064 16.111 81.3001C16.2821 81.6938 16.5557 81.8625 16.8636 81.8625H24.0472C24.5261 81.8625 24.9024 81.3001 25.005 80.5689L26.5443 67.4643H31.8807C34.6857 67.4643 37.046 66.9581 38.859 66.002C40.7405 64.9896 42.4508 63.3023 43.9902 60.9401C45.2216 59.0841 46.2479 57.0031 47.0346 54.7534L45.769 65.5521C45.7006 66.002 45.8032 66.5082 45.9742 66.9019C46.1453 67.2956 46.4189 67.4643 46.7268 67.4643H53.8419C54.3209 67.4643 54.6971 66.9019 54.7998 66.1707L58.3231 36.4744H63.2148C65.3015 36.4744 65.9172 37.1494 66.054 37.4306C66.1909 37.7118 66.5329 38.6117 66.1567 41.5925L63.3174 65.5521C63.249 66.002 63.3516 66.5082 63.5227 66.9019C63.6937 67.2956 63.9674 67.4643 64.2752 67.4643H71.493C71.9377 67.4643 72.3482 66.9581 72.4166 66.1707ZM39.4406 45.3608C38.9959 49.1291 38.1407 51.8288 36.9434 53.3473C35.712 54.9221 33.7279 55.7095 31.0939 55.7095H27.9126L30.2045 36.2495H34.3094C37.3197 36.2495 38.5512 37.3181 39.0301 38.218C39.7142 39.4553 39.8511 41.93 39.4406 45.3608Z"/><path fill="#fff" d="M102.827 30.4564C100.74 26.5194 97.4565 24.5509 93.0096 24.5509H79.2239C78.745 24.5509 78.3687 25.1134 78.2661 25.8445L71.9035 79.9503C71.8351 80.4002 71.9377 80.9064 72.1088 81.3001C72.2798 81.6938 72.5534 81.8625 72.8613 81.8625H80.0449C80.5238 81.8625 80.9001 81.3001 81.0027 80.5689L82.5078 67.4643H87.8442C90.6492 67.4643 93.0096 66.9581 94.8226 66.002C96.704 64.9896 98.4143 63.3023 99.9537 60.9401C101.219 59.0279 102.28 56.8906 103.067 54.5284C103.853 52.2225 104.435 49.579 104.743 46.8231C105.598 39.9053 104.948 34.4497 102.827 30.4564ZM95.4041 45.3608C94.9594 49.1291 94.1042 51.8288 92.9069 53.3473C91.6755 54.9221 89.6914 55.7095 87.0574 55.7095H83.8761L86.1681 36.2495H90.273C93.2832 36.2495 94.5147 37.3181 94.9936 38.218C95.6777 39.4553 95.8146 41.93 95.4041 45.3608Z"/><path fill="#08090D" d="M34.3094 34.6747C37.046 34.6747 38.859 35.5183 39.7484 37.1494C40.672 38.7804 40.8773 41.6488 40.3984 45.642C39.9195 49.804 38.9616 52.8411 37.5249 54.5847C36.1224 56.3845 33.9674 57.2843 31.0597 57.2843H26.7153L29.3835 34.6184H34.3094V34.6747ZM16.8294 80.2877H24.013L25.7233 65.8895H31.8807C34.5831 65.8895 36.8066 65.4396 38.5854 64.4834C40.33 63.5273 41.9377 61.9525 43.3402 59.759C44.5375 57.9592 45.5295 55.9345 46.2479 53.741C47.0004 51.5476 47.5135 49.1291 47.8214 46.4857C48.574 40.074 47.9924 35.0684 46.111 31.4688C44.1954 27.8693 41.1851 26.1257 37.046 26.1257H23.2604L16.8294 80.2877Z"/><path fill="#08090D" d="M53.0894 11.7838H60.2045L58.4942 26.182H64.8226C68.8248 26.182 71.5614 27.3068 73.0666 29.6128C74.5717 31.9188 75.0506 35.6308 74.4349 40.7489L71.4588 65.9457H64.241L67.0803 41.9862C67.3881 39.2866 67.2855 37.4306 66.7382 36.4182C66.1909 35.4058 64.9936 34.9559 63.1806 34.9559H57.5021L53.8419 65.9457H46.7268L53.0894 11.7838Z"/><path fill="#08090D" d="M90.273 34.6747C93.0096 34.6747 94.8226 35.5183 95.712 37.1494C96.6356 38.7804 96.8408 41.6488 96.3619 45.642C95.883 49.804 94.9252 52.8411 93.4885 54.5847C92.086 56.3845 89.9309 57.2843 87.0232 57.2843H82.6789L85.3471 34.6184H90.273V34.6747ZM72.7929 80.2877H79.9765L81.6869 65.8895H87.8442C90.5466 65.8895 92.7701 65.4396 94.5489 64.4834C96.2935 63.5273 97.9012 61.9525 99.3037 59.759C100.501 57.9592 101.493 55.9345 102.211 53.741C102.964 51.5476 103.477 49.1291 103.785 46.4857C104.537 40.074 103.956 35.0684 102.075 31.4688C100.159 27.8693 97.1487 26.1257 93.0096 26.1257H79.2239L72.7929 80.2877Z"/></svg>