<svg xmlns="http://www.w3.org/2000/svg" width="120" height="100" fill="none" viewBox="0 0 120 100"><path fill="url(#paint0_linear)" d="M59.3409 0.0216576C54.3452 0.0216576 49.6271 0.364518 45.4641 1.05025C33.2526 2.87887 31.0323 6.53613 31.0323 13.5078V22.6509H60.0347V25.7367H31.0323H20.2084C11.7435 25.7367 4.38886 29.8511 2.02981 37.8513C-0.606775 46.9944 -0.745543 52.5946 2.02981 62.0806C4.11133 69.1665 8.96819 74.1952 17.433 74.1952H27.4243V63.1092C27.4243 55.2232 35.7504 48.2516 45.6029 48.2516H74.6053C82.6539 48.2516 89.0372 42.7657 89.0372 36.137V13.3935C89.0372 6.87899 82.3763 2.07886 74.6053 0.935973C69.4709 0.250239 64.3365 -0.0926313 59.3409 0.0216576ZM43.6601 7.33614C46.713 7.33614 49.0721 9.39334 49.0721 11.9077C49.0721 14.4221 46.5742 16.4793 43.6601 16.4793C40.6072 16.4793 38.2482 14.4221 38.2482 11.9077C38.2482 9.27906 40.6072 7.33614 43.6601 7.33614Z"/><path fill="url(#paint1_linear)" d="M92.5063 25.5081V36.137C92.5063 44.3658 84.0415 51.2231 74.3278 51.2231H45.4641C37.5543 51.2231 31.0322 56.8233 31.0322 63.3377V86.0812C31.0322 92.5957 37.8318 96.3673 45.4641 98.1959C54.6227 100.367 63.5039 100.825 74.4665 98.1959C81.8212 96.4816 88.8984 92.9386 88.8984 86.0812V76.9381H59.8959V73.8523H88.8984H103.33C111.795 73.8523 114.848 69.0522 117.762 61.7377C120.815 54.3089 120.676 47.1087 117.762 37.5084C115.681 30.6511 111.656 25.3938 103.33 25.3938H92.5063V25.5081ZM76.2705 83.1097C79.3234 83.1097 81.6824 85.1669 81.6824 87.6813C81.6824 90.1956 79.1846 92.2528 76.2705 92.2528C73.2176 92.2528 70.8586 90.1956 70.8586 87.6813C70.8586 85.0526 73.2176 83.1097 76.2705 83.1097Z"/><defs><linearGradient id="paint0_linear" x1="-3" x2="52.745" y1="2.811" y2="60.48" gradientUnits="userSpaceOnUse"><stop stop-color="#5A9FD4"/><stop offset="1" stop-color="#306998"/></linearGradient><linearGradient id="paint1_linear" x1="88.953" x2="70.7" y1="78.977" y2="47.924" gradientUnits="userSpaceOnUse"><stop stop-color="#FFD43B"/><stop offset="1" stop-color="#FFE873"/></linearGradient></defs></svg>