<svg xmlns="http://www.w3.org/2000/svg" width="120" height="100" fill="none" viewBox="0 0 120 100"><path fill="#00D8FF" d="M98.6301 32.4105C97.3808 32.0102 96.0986 31.6406 94.7836 31.271C95.0137 30.4395 95.211 29.608 95.3753 28.8072C98.3014 15.5026 96.3945 4.78502 89.8521 1.27409C83.6055 -2.11366 73.3479 1.42808 63.0247 9.83584C62.0383 10.6366 61.0192 11.4989 60.0329 12.3921C59.3753 11.8069 58.7178 11.2217 58.0603 10.6674C47.211 1.64366 36.3616 -2.14446 29.8521 1.39728C23.6055 4.78502 21.7315 14.8559 24.3616 27.4521C24.6247 28.684 24.9205 29.9159 25.2493 31.1786C23.7041 31.579 22.2247 32.0102 20.811 32.4721C8.12055 36.6298 0 43.1281 0 49.8728C0 56.8331 8.71233 63.8242 21.9288 68.0743C22.9808 68.413 24.0658 68.721 25.1836 69.029C24.8219 70.3841 24.4932 71.7392 24.2301 73.0327C21.7315 85.4134 23.6712 95.2378 29.9178 98.6256C36.3616 102.106 47.1781 98.5332 57.6986 89.9098C58.5205 89.2323 59.3753 88.4931 60.1973 87.754C61.2822 88.7395 62.3671 89.6634 63.4521 90.5258C73.6438 98.7488 83.737 102.075 89.9507 98.6872C96.3945 95.207 98.4658 84.6434 95.7699 71.77C95.5726 70.7845 95.3096 69.7989 95.0466 68.7518C95.8027 68.5362 96.5589 68.3206 97.2822 68.105C111.025 63.8242 120 56.9255 120 49.8728C119.967 43.1281 111.584 36.599 98.6301 32.4105ZM95.6384 63.5778C94.9808 63.7934 94.3233 63.9782 93.6329 64.163C92.1205 59.6665 90.0493 54.8621 87.5507 49.9344C89.9507 45.0992 91.9233 40.3871 93.4027 35.8907C94.6192 36.2295 95.8356 36.5682 96.9863 36.9378C108.099 40.5103 114.871 45.8075 114.871 49.9036C114.838 54.2461 107.54 59.8821 95.6384 63.5778ZM90.7068 72.7247C91.9233 78.4223 92.0877 83.5347 91.2986 87.5692C90.5753 91.1725 89.1616 93.5747 87.3534 94.5603C83.5726 96.6237 75.4849 93.9443 66.7726 86.9224C65.7863 86.1217 64.7671 85.2594 63.7479 84.3354C67.1342 80.8861 70.5205 76.8516 73.8082 72.3859C79.5945 71.8932 85.0849 71.1232 90.0493 70.0453C90.3123 70.9384 90.5425 71.8316 90.7068 72.7247ZM40.8658 94.1907C37.1836 95.4226 34.2247 95.4534 32.4493 94.4987C28.6685 92.466 27.0904 84.551 29.2274 73.9566C29.4575 72.7555 29.7534 71.4928 30.1151 70.2301C35.0466 71.2464 40.4712 71.9856 46.2904 72.4167C49.611 76.79 53.0959 80.8245 56.5808 84.3354C55.8247 85.013 55.0685 85.6905 54.2795 86.3065C49.6438 90.1254 44.9753 92.8356 40.8658 94.1907ZM23.5726 63.547C17.7205 61.6683 12.8877 59.2353 9.56712 56.5867C6.57534 54.1845 5.09589 51.8439 5.09589 49.9036C5.09589 45.8075 11.6055 40.6027 22.4877 37.0302C23.8027 36.599 25.1836 36.1987 26.6301 35.7983C28.1425 40.3871 30.1151 45.1608 32.4822 49.996C30.0822 54.8928 28.0767 59.7589 26.5644 64.4093C25.5123 64.1321 24.526 63.855 23.5726 63.547ZM29.3589 26.559C27.0904 15.749 28.6027 7.61841 32.3836 5.58576C36.3945 3.39913 45.2712 6.5097 54.6411 14.3015C55.2329 14.7943 55.8247 15.3178 56.4493 15.8722C52.9644 19.3831 49.5123 23.3868 46.2247 27.7293C40.5699 28.2221 35.1781 28.992 30.2137 30.0699C29.8849 28.838 29.6219 27.6677 29.3589 26.559ZM81.1397 38.5085C79.9562 36.599 78.7397 34.7204 77.4904 32.8725C81.3041 33.3345 84.9863 33.9196 88.4384 34.6588C87.4192 37.7693 86.1041 41.0031 84.5918 44.3292C83.5068 42.4506 82.3562 40.4795 81.1397 38.5085ZM60.0329 19.2599C62.4 21.6622 64.7671 24.3416 67.1014 27.2365C64.7671 27.1441 62.3671 27.0825 59.9671 27.0825C57.6 27.0825 55.2329 27.1441 52.8986 27.2365C55.2329 24.3724 57.6329 21.6929 60.0329 19.2599ZM38.7945 38.5701C37.611 40.5103 36.4932 42.4506 35.4082 44.3908C33.9288 41.0647 32.6466 37.8001 31.5945 34.6588C35.0137 33.9504 38.663 33.3653 42.4767 32.9033C41.1945 34.7204 39.9781 36.6298 38.7945 38.5701ZM42.5753 67.2427C38.6301 66.8424 34.9479 66.288 31.5288 65.5797C32.5808 62.3767 33.8959 59.0505 35.4082 55.6628C36.4932 57.603 37.611 59.5433 38.7945 61.4836C40.011 63.4546 41.2603 65.3641 42.5753 67.2427ZM60.1644 80.8861C57.7315 78.4223 55.2986 75.7121 52.9315 72.7863C55.2329 72.8787 57.5671 72.9095 59.9671 72.9095C62.4 72.9095 64.8329 72.8479 67.2 72.7555C64.8658 75.7429 62.4986 78.4531 60.1644 80.8861ZM84.6247 55.478C86.2356 58.8965 87.5836 62.2227 88.6685 65.3641C85.1836 66.1032 81.4356 66.7192 77.4904 67.1503C78.7397 65.3025 79.9562 63.393 81.1726 61.422C82.389 59.4509 83.5397 57.4799 84.6247 55.478ZM76.7014 59.0505C74.8274 62.0995 72.8877 64.9945 70.9479 67.7663C67.3973 68.0127 63.7151 68.1358 59.9671 68.1358C56.2192 68.1358 52.6027 68.0127 49.1178 67.8279C47.0794 65.0561 45.1068 62.1303 43.2658 59.1121C41.3918 56.094 39.6822 53.0758 38.137 50.0576C39.6822 47.0394 41.3918 43.9905 43.2329 41.0031C45.074 37.9849 47.0466 35.0899 49.0521 32.3182C52.6356 32.0718 56.2849 31.9486 59.9671 31.9486C63.6822 31.9486 67.3315 32.0718 70.9151 32.3489C72.8877 35.0899 74.8274 37.9849 76.7014 41.0031C78.5753 44.0521 80.3178 47.0702 81.863 50.0268C80.3178 52.9526 78.5753 56.0016 76.7014 59.0505ZM87.2877 5.43178C91.2986 7.58761 92.8767 16.365 90.3452 27.8525C90.1808 28.5916 90.0164 29.3308 89.8192 30.1007C84.8548 29.0228 79.4301 28.2221 73.7753 27.7293C70.4877 23.3252 67.0685 19.3215 63.6164 15.8722C64.537 15.0407 65.4575 14.2399 66.3781 13.5008C75.2219 6.23251 83.5069 3.39913 87.2877 5.43178ZM59.9671 39.8636C65.8849 39.8636 70.6849 44.36 70.6849 49.9036C70.6849 55.4472 65.8849 59.9437 59.9671 59.9437C54.0493 59.9437 49.2493 55.4472 49.2493 49.9036C49.2493 44.36 54.0493 39.8636 59.9671 39.8636Z"/></svg>