<svg xmlns="http://www.w3.org/2000/svg" width="120" height="100" fill="none" viewBox="0 0 120 100"><path fill="#6A7E91" d="M28.8658 91.1198H24.2301C24.0658 81.5131 23.6055 72.5118 22.8822 64.0353H22.8493L15.8137 91.1198H12.2959L5.29315 64.0353H5.26027C4.73425 72.1485 4.40548 81.1902 4.27397 91.1198H0C0.263014 79.0509 0.953424 67.7085 2.03836 57.1733H7.79178L14.4658 82.1186H14.4986L21.2055 57.1733H26.6959C27.9123 69.5249 28.6356 80.8673 28.8658 91.1198Z"/><path fill="#6A7E91" d="M48.9205 66.0535C47.0466 78.6069 44.5479 87.7292 41.4575 93.4206C39.0575 97.8203 36.4274 100 33.5342 100C32.7781 100 31.8247 99.7174 30.7068 99.1523V96.125C31.2658 96.2057 31.8904 96.2865 32.6466 96.2865C33.9945 96.2865 35.0795 95.8425 35.8685 94.9141C36.8548 93.8242 37.3479 92.573 37.3479 91.2006C37.3479 90.2722 36.9534 88.3347 36.1973 85.4284L31.1014 66.0535H35.6384L39.2877 80.5444C40.1096 83.8542 40.4384 86.1146 40.3069 87.4467C42.3123 80.9076 43.6932 73.7631 44.4822 66.0535H48.9205Z"/><path fill="#FA8A3B" d="M110.564 91.1198H97.4137V57.133H101.852V86.9219H110.564V91.1198Z"/><path fill="#FA8A3B" fill-rule="evenodd" d="M93.9616 91.9271L88.8657 88.8594C89.326 88.4154 89.7534 87.931 90.1479 87.3256C92.3178 84.2175 93.4027 79.616 93.4027 73.4806C93.4027 62.2593 89.8192 56.6082 82.6192 56.6082C79.1014 56.6082 76.3397 58.021 74.3671 60.8869C72.1973 63.9949 71.1452 68.5965 71.1452 74.6915C71.1452 80.6654 72.0986 85.0248 74.0055 87.81C75.7479 90.3125 78.3781 91.5638 81.9288 91.5638C83.2438 91.5638 84.4603 91.362 85.5452 90.9584L92.1534 95.681L93.9616 91.9271ZM77.4904 84.2982C76.3726 82.0782 75.8137 78.5261 75.8137 73.642C75.8137 65.0848 77.9178 60.8061 82.1589 60.8061C84.3616 60.8061 86.0055 61.8153 87.0247 63.8738C88.1425 66.0939 88.7014 69.6056 88.7014 74.4493C88.7014 83.0873 86.5973 87.3659 82.3562 87.3659C80.1534 87.4063 78.5425 86.3568 77.4904 84.2982Z" clip-rule="evenodd"/><path fill="#FA8A3B" d="M69.2055 81.7149C69.2055 84.5808 68.3507 86.9623 66.6411 88.8191C64.9315 90.6758 62.5973 91.6042 59.7041 91.6042C57.0082 91.6042 54.3781 90.5547 51.8466 88.4154L53.0301 85.5092C55.2 86.8412 57.2055 87.5274 58.9808 87.5274C60.6575 87.5274 61.9397 87.0834 62.8931 86.155C63.8466 85.267 64.4055 83.9753 64.4055 82.4011C64.4055 80.3829 63.2548 78.6472 61.1507 77.2345C59.211 75.9428 55.3315 73.198 55.3315 73.198C53.2274 71.3009 52.1753 69.2827 52.1753 65.9728C52.1753 63.228 52.9644 61.008 54.5425 59.3127C56.1205 57.6174 58.1589 56.7697 60.6247 56.7697C63.189 56.7697 65.5233 57.6174 67.6274 59.2723L66.5425 62.1785C64.7342 61.2502 62.9589 60.7658 61.2164 60.7658C59.8027 60.7658 58.7178 61.1694 57.9288 62.0171C57.1726 62.8647 56.6794 63.9142 56.6794 65.2462C56.6794 67.2644 57.863 69.0001 60 70.4936C61.9726 71.7853 65.9507 74.5704 65.9507 74.5704C68.1534 76.3868 69.2055 78.405 69.2055 81.7149Z"/><path fill="#6A7E91" fill-rule="evenodd" d="M116.121 45.7906C113.458 45.7099 111.386 46.0328 109.644 46.9208C109.151 47.163 108.329 47.163 108.263 47.9299C108.526 48.2528 108.559 48.7775 108.789 49.2619C109.184 50.0692 109.874 51.1994 110.532 51.7645C111.222 52.4103 111.945 53.0562 112.668 53.6616C113.984 54.6708 115.43 55.2359 116.712 56.2046C117.436 56.7697 118.192 57.4963 118.915 58.1421C119.277 58.465 119.507 58.9897 119.967 59.1916V59.0705C119.737 58.7072 119.671 58.1825 119.441 57.7385C119.112 57.3348 118.784 56.9715 118.422 56.5679C117.436 54.9533 116.252 53.5809 114.937 52.4103C113.852 51.5223 111.518 50.271 111.09 48.7775L111.025 48.6968C111.748 48.6161 112.636 48.2932 113.326 48.051C114.477 47.6877 115.496 47.7684 116.679 47.4052C117.205 47.2437 117.764 47.0419 118.29 46.8401V46.4768C117.699 45.7502 117.238 44.7411 116.614 44.0549C114.904 42.2385 113.03 40.5028 111.09 39.0094C110.038 38.2021 108.723 37.6773 107.605 36.9508C107.211 36.7086 106.553 36.5875 106.29 36.1838C105.699 35.2958 105.337 34.0849 104.91 33.0354C103.956 30.775 103.003 28.2724 102.181 25.8909C101.589 24.2763 101.227 22.7021 100.471 21.2086C97.0192 14.2256 93.2712 9.98734 87.5507 5.87016C86.3014 5.02251 84.8548 4.61887 83.2767 4.17486C82.4548 4.13449 81.6 4.05377 80.7781 4.0134C80.2521 3.73085 79.6932 2.96393 79.2329 2.56028C77.326 1.0668 72.4274 -2.12199 71.0137 2.11627C70.126 4.78032 72.3616 7.40401 73.1178 8.7764C73.6767 9.70478 74.4329 10.7946 74.8274 11.8441C75.0575 12.5303 75.1233 13.2972 75.3534 14.0238C75.8795 15.8402 76.3726 17.8584 77.0959 19.5133C77.4575 20.361 77.8521 21.2894 78.3452 22.0563C78.6082 22.5003 79.0685 22.7021 79.1671 23.4691C78.7068 24.2763 78.674 25.5276 78.411 26.5367C77.1945 31.1787 77.6877 36.9104 79.3973 40.3414C79.9233 41.3505 81.2055 43.6109 82.9151 42.7633C84.4274 42.0367 84.0986 39.6955 84.526 37.637C84.6247 37.1526 84.5589 36.8297 84.7562 36.5068V36.5875C85.2164 37.7177 85.6767 38.8479 86.137 39.9781C87.189 41.9963 88.9644 44.0953 90.4767 45.4677C91.2658 46.1942 91.9233 47.4859 92.9096 47.9299V47.8088H92.8438C92.6466 47.4455 92.3507 47.2841 92.0877 47.0015C91.4959 46.275 90.8055 45.3466 90.3452 44.5393C88.9315 42.2385 87.7151 39.6956 86.5973 37.0719C86.0712 35.7802 85.5781 34.4078 85.1507 33.1161C84.9534 32.6318 84.9534 31.9052 84.6247 31.6227C84.1315 32.5107 83.3753 33.318 83.0137 34.4078C82.389 36.1838 82.3233 38.3635 82.0603 40.6239C81.9288 40.6643 81.9945 40.6239 81.9288 40.7047C80.8767 40.3817 80.4822 39.0094 80.0877 37.8792C79.1014 34.9729 78.9041 30.2906 79.7918 26.9C80.0219 26.0524 81.0411 23.348 80.6137 22.5003C80.4164 21.7334 79.7589 21.2894 79.3644 20.6435C78.937 19.8766 78.4438 18.8675 78.148 18.0199C77.3589 15.7191 76.9315 13.1761 76.0767 10.8754C75.6822 9.82588 74.9589 8.69568 74.4 7.72693C73.7753 6.63709 73.0521 5.8298 72.5589 4.53814C72.3945 4.09413 72.1644 3.32721 72.4274 2.84283C72.4932 2.51992 72.6247 2.39882 72.8877 2.31809C73.3151 1.87408 74.5644 2.43919 74.9918 2.68138C76.2411 3.28684 77.2603 3.89231 78.3123 4.73996C78.7726 5.1436 79.2986 5.91053 79.8904 6.15271H80.5808C81.6658 6.43526 82.8493 6.23345 83.8685 6.59672C85.6438 7.28292 87.2548 8.33239 88.6685 9.42223C93.0411 12.8128 96.6575 17.6566 99.0904 23.4691C99.4849 24.3974 99.6493 25.2855 100.044 26.2542C100.734 28.2724 101.622 30.331 102.312 32.3089C103.003 34.2464 103.693 36.2242 104.679 37.7984C105.173 38.6461 107.178 39.0901 108.099 39.5745C108.756 39.9377 109.808 40.2607 110.4 40.7047C111.551 41.5523 112.668 42.5614 113.753 43.4898C114.345 43.9338 116.022 44.9429 116.121 45.7906Z" clip-rule="evenodd"/><path fill="#6A7E91" fill-rule="evenodd" d="M82.0274 10.1084C81.4685 10.1084 81.074 10.1892 80.6466 10.3103V10.391H80.7123C80.9753 11.0368 81.4356 11.4808 81.7973 12.0863C82.0603 12.7321 82.2904 13.3779 82.5534 14.0641L82.6192 13.9834C83.0794 13.5798 83.3096 12.9339 83.3096 11.9248C83.1123 11.6423 83.0795 11.3597 82.9151 11.0772C82.7178 10.6332 82.2904 10.4313 82.0274 10.1084Z" clip-rule="evenodd"/><path fill="#FA8A3B" d="M119.31 91.1198H120V86.9623H118.948L118.093 89.7878L117.173 86.9623H116.186V91.1198H116.844V87.931H116.877L117.83 91.0795H118.323L119.277 87.931V91.1198H119.31ZM113.721 91.1198H114.444V87.6485H115.397V86.9219H112.701V87.6485H113.688V91.1198H113.721Z"/></svg>