<svg width="66" height="65" viewBox="0 0 66 65" fill="none" xmlns="http://www.w3.org/2000/svg">
<path d="M14.3281 6.55078H13.2383C12.0664 6.55078 11.1875 6.84375 10.6016 7.42969C9.57031 8.46094 9.05469 9.5625 9.05469 10.7344V12.7383C9.05469 14.5664 8.19922 15.832 6.48828 16.5352C5.97266 16.7461 5.42188 16.8516 4.83594 16.8516C4.27344 16.8516 3.73438 16.7461 3.21875 16.5352C2.72656 16.3242 2.30469 16.0312 1.95312 15.6562C1.13281 14.8594 0.722656 13.8867 0.722656 12.7383V10.6289C0.722656 7.74609 1.74219 5.29687 3.78125 3.28125C5.86719 1.24219 8.31641 0.222656 11.1289 0.222656H18.4766C19.625 0.222656 20.4922 0.515625 21.0781 1.10156C22.1094 2.13281 22.625 3.24609 22.625 4.44141V54.2578C22.625 57.1172 21.6055 59.5664 19.5664 61.6055C17.5273 63.6445 15.0664 64.6641 12.1836 64.6641H6.69922C5.33984 64.6641 4.36719 64.0312 3.78125 62.7656C3.61719 62.3672 3.53516 61.9453 3.53516 61.5C3.53516 60.6562 3.75781 59.9883 4.20312 59.4961C4.97656 58.6992 5.80859 58.3008 6.69922 58.3008H10.1445C11.3164 58.3008 12.1953 58.0078 12.7812 57.4219C13.8125 56.3906 14.3281 55.3125 14.3281 54.1875V6.55078ZM35.2109 12.7383C35.2109 14.5664 34.3555 15.832 32.6445 16.5352C32.1289 16.7461 31.5781 16.8516 30.9922 16.8516C30.4297 16.8516 29.8906 16.7461 29.375 16.5352C28.8828 16.3242 28.4492 16.0312 28.0742 15.6562C27.2773 14.9062 26.8789 13.9336 26.8789 12.7383V10.6289C26.8789 7.76953 27.8984 5.32031 29.9375 3.28125C31.9766 1.24219 34.4258 0.222656 37.2852 0.222656H55.3203C58.1797 0.222656 60.6289 1.24219 62.668 3.28125C64.6836 5.29687 65.6914 7.74609 65.6914 10.6289V37.5938C65.6914 40.4766 64.6836 42.9258 62.668 44.9414C60.6289 46.9805 58.1797 48 55.3203 48H36.8633C35.9961 48 35.3281 47.7773 34.8594 47.332C34.0625 46.582 33.6641 45.8789 33.6641 45.2227C33.6641 44.543 33.7461 44.0156 33.9102 43.6406C34.0742 43.2422 34.2969 42.8906 34.5781 42.5859C35.2344 41.9531 35.9961 41.6367 36.8633 41.6367H40.8008V14.3906C40.8008 12.1641 41.7969 10.1133 43.7891 8.23828C44 8.05078 44.1055 7.85156 44.1055 7.64062C44.1055 7.40625 44.0234 7.17188 43.8594 6.9375C43.7188 6.67969 43.4258 6.55078 42.9805 6.55078H39.0078C37.9766 6.55078 37.1797 6.86719 36.6172 7.5C35.6797 8.55469 35.2109 9.63281 35.2109 10.7344V12.7383ZM49.1328 41.6367H53.3164C54.418 41.6367 55.2734 41.3438 55.8828 40.7578C56.8906 39.7969 57.3945 38.7188 57.3945 37.5234V10.7344C57.3945 9.5625 57.1016 8.68359 56.5156 8.09766C55.4844 7.06641 54.5352 6.55078 53.668 6.55078C52.8008 6.55078 52.1094 6.66797 51.5938 6.90234C51.0781 7.11328 50.6328 7.40625 50.2578 7.78125C49.5078 8.57813 49.1328 9.55078 49.1328 10.6992V41.6367Z" fill="black"/>
</svg>
